<?xml version="1.0" standalone="yes"?>
<svg height="390" width="550" id="svg" xmlns="http://www.w3.org/2000/svg">
  <circle cx="50" cy="65" r="12" stroke="black" stroke-width="1" fill="#6fa8dc" />
  <text x="45" y="70" font-family="STIXGeneral-Italic" font-size="18px" fill="#000000">λ</text>

  <circle cx="50" cy="180" r="12" stroke="black" stroke-width="1" fill="#6fa8dc" />
  <text x="45" y="185" font-family="helvetica" font-size="18px" fill="#000000">a</text>

  <circle cx="50" cy="295" r="12" stroke="black" stroke-width="1" fill="#6fa8dc" />
  <text x="45" y="302" font-family="helvetica" font-size="18px" fill="#000000">b</text>


  <circle cx="130" cy="30" r="12" stroke="black" stroke-width="1" fill="#d3d3d3" />
  <text x="125" y="35" font-family="STIXGeneral-Italic" font-size="18px" fill="#000000">ϵ</text>
  <circle cx="130" cy="65" r="12" stroke="black" stroke-width="1" fill="#E77471" />
  <text x="125" y="70" font-family="helvetica" font-size="18px" fill="#000000">a</text>
  <circle cx="130" cy="100" r="12" stroke="black" stroke-width="1" fill="#d3d3d3" />
  <text x="125" y="107" font-family="helvetica" font-size="18px" fill="#000000">b</text>

  <circle cx="130" cy="145" r="12" stroke="black" stroke-width="1" fill="#E77471" />
  <text x="125" y="150" font-family="STIXGeneral-Italic" font-size="18px" fill="#000000">ϵ</text>
  <circle cx="130" cy="180" r="12" stroke="black" stroke-width="1" fill="#E77471" />
  <text x="125" y="185" font-family="helvetica" font-size="18px" fill="#000000">a</text>
  <circle cx="130" cy="215" r="12" stroke="black" stroke-width="1" fill="#E77471" />
  <text x="125" y="222" font-family="helvetica" font-size="18px" fill="#000000">b</text>

  <circle cx="130" cy="260" r="12" stroke="black" stroke-width="1" fill="#d3d3d3" />
  <text x="125" y="265" font-family="STIXGeneral-Italic" font-size="18px" fill="#000000">ϵ</text>
  <circle cx="130" cy="295" r="12" stroke="black" stroke-width="1" fill="#E77471" />
  <text x="125" y="300" font-family="helvetica" font-size="18px" fill="#000000">a</text>
  <circle cx="130" cy="330" r="12" stroke="black" stroke-width="1" fill="#d3d3d3" />
  <text x="125" y="337" font-family="helvetica" font-size="18px" fill="#000000">b</text>

  <circle cx="230" cy="65" r="12" stroke="black" stroke-width="1" fill="#6fa8dc" />
  <text x="225" y="70" font-family="helvetica" font-size="18px" fill="#000000">a</text>

  <circle cx="230" cy="180" r="12" stroke="black" stroke-width="1" fill="#6fa8dc" />
  <text x="225" y="185" font-family="helvetica" font-size="18px" fill="#000000">a</text>
  <circle cx="280" cy="180" r="12" stroke="black" stroke-width="1" fill="#6fa8dc" />
  <text x="275" y="187" font-family="helvetica" font-size="18px" fill="#000000">b</text>

  <circle cx="230" cy="295" r="12" stroke="black" stroke-width="1" fill="#6fa8dc" />
  <text x="225" y="302" font-family="helvetica" font-size="18px" fill="#000000">b</text>
  <circle cx="280" cy="295" r="12" stroke="black" stroke-width="1" fill="#6fa8dc" />
  <text x="275" y="300" font-family="helvetica" font-size="18px" fill="#000000">a</text>

  <circle cx="360" cy="30" r="12" stroke="black" stroke-width="1" fill="#E77471" />
  <text x="355" y="35" font-family="STIXGeneral-Italic" font-size="18px" fill="#000000">ϵ</text>
  <circle cx="360" cy="65" r="12" stroke="black" stroke-width="1" fill="#E77471" />
  <text x="355" y="70" font-family="helvetica" font-size="18px" fill="#000000">a</text>
  <circle cx="360" cy="100" r="12" stroke="black" stroke-width="1" fill="#d3d3d3" />
  <text x="355" y="107" font-family="helvetica" font-size="18px" fill="#000000">b</text>

  <circle cx="360" cy="145" r="12" stroke="black" stroke-width="1" fill="#d3d3d3" />
  <text x="355" y="150" font-family="STIXGeneral-Italic" font-size="18px" fill="#000000">ϵ</text>
  <circle cx="360" cy="180" r="12" stroke="black" stroke-width="1" fill="#d3d3d3" />
  <text x="355" y="185" font-family="helvetica" font-size="18px" fill="#000000">a</text>
  <circle cx="360" cy="215" r="12" stroke="black" stroke-width="1" fill="#d3d3d3" />
  <text x="355" y="222" font-family="helvetica" font-size="18px" fill="#000000">b</text>

  <circle cx="360" cy="260" r="12" stroke="black" stroke-width="1" fill="#E77471" />
  <text x="355" y="265" font-family="STIXGeneral-Italic" font-size="18px" fill="#000000">ϵ</text>
  <circle cx="360" cy="295" r="12" stroke="black" stroke-width="1" fill="#E77471" />
  <text x="355" y="300" font-family="helvetica" font-size="18px" fill="#000000">a</text>
  <circle cx="360" cy="330" r="12" stroke="black" stroke-width="1" fill="#d3d3d3" />
  <text x="355" y="337" font-family="helvetica" font-size="18px" fill="#000000">b</text>

  <circle cx="460" cy="65" r="12" stroke="black" stroke-width="1" fill="#6fa8dc" />
  <text x="455" y="70" font-family="helvetica" font-size="18px" fill="#000000">a</text>

  <circle cx="460" cy="180" r="12" stroke="black" stroke-width="1" fill="#6fa8dc" />
  <text x="455" y="185" font-family="helvetica" font-size="18px" fill="#000000">a</text>
  <circle cx="510" cy="180" r="12" stroke="black" stroke-width="1" fill="#6fa8dc" />
  <text x="505" y="185" font-family="helvetica" font-size="18px" fill="#000000">a</text>

  <circle cx="460" cy="295" r="12" stroke="black" stroke-width="1" fill="#6fa8dc" />
  <text x="455" y="302" font-family="helvetica" font-size="18px" fill="#000000">b</text>
  <circle cx="510" cy="295" r="12" stroke="black" stroke-width="1" fill="#6fa8dc" />
  <text x="505" y="300" font-family="helvetica" font-size="18px" fill="#000000">a</text>

  <text x="70" y="370" font-family="helvetica" font-size="18px" fill="#000000">T = 2</text>
  <text x="270" y="370" font-family="helvetica" font-size="18px" fill="#000000">T = 3</text>
  <text x="470" y="370" font-family="helvetica" font-size="18px" fill="#000000">T = 4</text>

  <line x1="59" y1="57" x2="118" y2="30" stroke="#000000" stroke-width="1.5" />
  <line x1="62" y1="65" x2="118" y2="65" stroke="#000000" stroke-width="1.5" />
  <line x1="59" y1="73" x2="118" y2="100" stroke="#000000" stroke-width="1.5" />

  <line x1="59" y1="172" x2="118" y2="145" stroke="#000000" stroke-width="1.5" />
  <line x1="62" y1="180" x2="118" y2="180" stroke="#000000" stroke-width="1.5" />
  <line x1="59" y1="188" x2="118" y2="215" stroke="#000000" stroke-width="1.5" />

  <line x1="59" y1="287" x2="118" y2="260" stroke="#000000" stroke-width="1.5" />
  <line x1="62" y1="295" x2="118" y2="295" stroke="#000000" stroke-width="1.5" />
  <line x1="59" y1="303" x2="118" y2="330" stroke="#000000" stroke-width="1.5" />

  <line x1="242" y1="180" x2="268" y2="180" stroke="#000000" stroke-width="1.5" />

  <line x1="239" y1="57" x2="348" y2="30" stroke="#000000" stroke-width="1.5" />
  <line x1="242" y1="65" x2="348" y2="65" stroke="#000000" stroke-width="1.5" />
  <line x1="239" y1="73" x2="348" y2="100" stroke="#000000" stroke-width="1.5" />

  <line x1="242" y1="295" x2="268" y2="295" stroke="#000000" stroke-width="1.5" />

  <line x1="289" y1="172" x2="348" y2="145" stroke="#000000" stroke-width="1.5" />
  <line x1="292" y1="180" x2="348" y2="180" stroke="#000000" stroke-width="1.5" />
  <line x1="289" y1="188" x2="348" y2="215" stroke="#000000" stroke-width="1.5" />

  <line x1="289" y1="287" x2="348" y2="260" stroke="#000000" stroke-width="1.5" />
  <line x1="292" y1="295" x2="348" y2="295" stroke="#000000" stroke-width="1.5" />
  <line x1="289" y1="303" x2="348" y2="330" stroke="#000000" stroke-width="1.5" />

  <line x1="472" y1="180" x2="498" y2="180" stroke="#000000" stroke-width="1.5" />
  <line x1="472" y1="295" x2="498" y2="295" stroke="#000000" stroke-width="1.5" />

  <line stroke-dasharray="5, 5" x1="142" y1="65" x2="218" y2="65" stroke="#000000" stroke-width="1" />
  <line stroke-dasharray="5, 5" x1="142" y1="145" x2="218" y2="65" stroke="#000000" stroke-width="1" />
  <line stroke-dasharray="5, 5" x1="142" y1="180" x2="218" y2="65" stroke="#000000" stroke-width="1" />


  <line stroke-dasharray="5, 5" x1="142" y1="215" x2="218" y2="180" stroke="#000000" stroke-width="1" />

  <line stroke-dasharray="5, 5" x1="142" y1="295" x2="218" y2="295" stroke="#000000" stroke-width="1" />

  <line stroke-dasharray="5, 5" x1="372" y1="30" x2="448" y2="65" stroke="#000000" stroke-width="1" />
  <line stroke-dasharray="5, 5" x1="372" y1="65" x2="448" y2="65" stroke="#000000" stroke-width="1" />
  <line stroke-dasharray="5, 5" x1="372" y1="65" x2="448" y2="180" stroke="#000000" stroke-width="1" />

  <line stroke-dasharray="5, 5" x1="372" y1="260" x2="448" y2="295" stroke="#000000" stroke-width="1" />
  <line stroke-dasharray="5, 5" x1="372" y1="295" x2="448" y2="295" stroke="#000000" stroke-width="1" />

</svg>
