<?xml version="1.0" encoding="UTF-8" standalone="no"?>
<!-- Created with matplotlib (http://matplotlib.org/) -->

<svg
   xmlns:dc="http://purl.org/dc/elements/1.1/"
   xmlns:cc="http://creativecommons.org/ns#"
   xmlns:rdf="http://www.w3.org/1999/02/22-rdf-syntax-ns#"
   xmlns:svg="http://www.w3.org/2000/svg"
   xmlns="http://www.w3.org/2000/svg"
   xmlns:sodipodi="http://sodipodi.sourceforge.net/DTD/sodipodi-0.dtd"
   xmlns:inkscape="http://www.inkscape.org/namespaces/inkscape"
   height="163.5pt"
   version="1.1"
   viewBox="0 0 231.00001 163.49999"
   width="231.00002pt"
   id="svg19"
   sodipodi:docname="speech_recognition.svg"
   inkscape:version="0.92.2 5c3e80d, 2017-08-06">
  <metadata
     id="metadata23">
    <rdf:RDF>
      <cc:Work
         rdf:about="">
        <dc:format>image/svg+xml</dc:format>
        <dc:type
           rdf:resource="http://purl.org/dc/dcmitype/StillImage" />
        <dc:title></dc:title>
      </cc:Work>
    </rdf:RDF>
  </metadata>
  <sodipodi:namedview
     pagecolor="#ffffff"
     bordercolor="#666666"
     borderopacity="1"
     objecttolerance="10"
     gridtolerance="10"
     guidetolerance="10"
     inkscape:pageopacity="0"
     inkscape:pageshadow="2"
     inkscape:window-width="1403"
     inkscape:window-height="739"
     id="namedview21"
     showgrid="false"
     fit-margin-top="0"
     fit-margin-left="0"
     fit-margin-right="0"
     fit-margin-bottom="0"
     inkscape:zoom="1"
     inkscape:cx="-112.21499"
     inkscape:cy="194.86527"
     inkscape:window-x="0"
     inkscape:window-y="0"
     inkscape:window-maximized="0"
     inkscape:current-layer="svg19" />
  <defs
     id="defs4"
     style="stroke-linecap:butt;stroke-linejoin:round;stroke-miterlimit:100000">
    <style
       type="text/css"
       id="style2">
*{stroke-linecap:butt;stroke-linejoin:round;stroke-miterlimit:100000;}
    svg {
      font: 400 16px/1.55em -apple-system, BlinkMacSystemFont, "Roboto", Helvetica, sans-serif;
    }
  </style>
  </defs>
  <g
     id="figure_1"
     style="stroke-linecap:butt;stroke-linejoin:round;stroke-miterlimit:100000"
     transform="matrix(0.74955758,0,0,0.70803985,-26.01819,11.6231)">
    <g
       id="axes_1"
       style="stroke-linecap:butt;stroke-linejoin:round;stroke-miterlimit:100000"
       transform="matrix(0.88158389,0,0,0.97246964,-6.3364216,1.4601694)">
      <g
         id="line2d_1"
         style="stroke-linecap:butt;stroke-linejoin:round;stroke-miterlimit:100000">
        <path
           clip-path="url(#p034ddf5e46)"
           d="m 54,140.13038 0.279,0.49516 0.558,0.12736 0.279,-0.62252 0.279,-0.0423 0.558,0.23756 0.279,0.20394 0.279,-0.0551 0.279,-0.29994 0.279,0.096 0.279,-0.096 0.558,0.22554 0.558,0.17917 0.279,-0.30871 0.279,-0.0496 0.279,-0.17373 0.279,0.4273 0.279,-0.34402 0.279,0.39916 0.558,-0.0551 0.558,-0.34402 0.279,0.0905 0.279,0.35834 0.558,-0.10477 0.837,-0.1488 0.279,0.0744 0.279,0.3529 0.279,-0.17373 0.279,-1.60222 0.279,4.0727 0.279,-2.00035 0.279,0.16803 0.279,-1.43176 0.279,1.46429 0.279,-1.53357 0.279,1.36741 0.279,-0.6093 0.279,-7.82845 0.279,5.30118 0.558,-2.64215 0.279,2.51872 0.279,3.91331 0.279,-1.68991 0.279,-4.6176 0.279,-0.87667 0.279,2.03696 0.279,-3.37976 0.279,18.00944 0.279,-14.62968 0.279,2.61981 0.279,9.07457 0.279,-12.00282 0.279,7.68209 0.279,2.66056 0.279,-3.45321 0.279,0.33247 0.279,-7.73777 0.279,0.69137 0.279,2.52009 0.279,7.88211 0.279,-7.43613 0.279,1.10661 0.279,-2.07156 0.279,-6.12712 0.279,1.98329 0.279,5.07764 0.279,8.00771 0.558,-4.8239 0.279,-5.57976 0.279,3.17862 0.279,-3.82751 0.558,6.40605 0.279,1.41265 0.279,-1.85 0.279,-6.0561 0.558,12.44848 0.279,-3.44191 0.279,-35.19898 0.279,63.6111 0.279,-58.00452 0.279,50.68564 0.279,-40.93234 0.279,21.37348 0.279,-31.64124 0.279,44.03376 0.279,-30.51174 0.279,10.46916 0.279,18.89907 0.279,-92.774573 0.279,132.219263 0.279,-70.20415 0.279,-14.47569 0.279,56.64009 0.279,-31.9212 0.279,17.98179 0.279,-47.13183 0.558,48.39587 0.279,-10.91492 0.279,11.71362 0.279,-54.29778 0.279,89.96716 0.279,-67.53501 0.279,-15.27355 0.279,47.10863 0.279,-10.14773 0.279,16.16693 0.279,-87.642571 0.558,114.315521 0.279,-46.14083 0.279,5.06416 0.279,-11.70091 0.279,-76.600127 0.279,115.177397 0.279,-6.51769 0.279,-45.0508 0.279,23.17628 0.279,-4.23765 0.558,17.87552 0.279,-8.56497 0.279,-39.8647 0.279,31.88038 0.279,2.77849 0.279,12.30357 0.279,-53.07055 0.558,49.83095 0.279,-17.79692 0.279,20.66542 0.279,-11.16223 0.279,-32.44303 0.279,12.2557 0.558,31.76507 0.279,-32.39185 0.279,24.56458 0.279,-5.92783 0.279,-49.351394 0.279,73.672404 0.279,-12.9876 0.279,-31.04122 0.558,26.78319 0.279,-30.4317 0.279,-4.89136 0.279,40.25102 0.279,-6.00823 0.279,-19.23161 0.279,19.9489 0.279,-1.20729 0.279,-51.59635 0.279,59.41595 0.279,-0.92847 0.279,-26.26428 0.279,5.12844 0.279,14.05745 0.279,-31.66183 0.279,11.87446 0.279,25.94049 0.558,-23.42145 0.279,17.01169 0.279,-4.32846 0.279,-40.49211 0.279,48.45388 0.279,1.29426 0.279,-18.93859 0.279,8.66646 0.279,3.03073 0.279,-26.72282 0.279,4.2355 0.279,34.12888 0.558,-27.13345 0.279,12.27705 0.279,-2.5897 0.279,-23.5053 0.279,28.00763 0.279,7.89996 0.279,-14.43751 0.279,-5.05726 0.279,13.69005 0.558,-26.22621 0.279,21.84511 0.279,8.24383 0.558,-17.65951 0.279,8.29288 0.279,-15.5292 0.279,5.1132 0.279,14.92574 0.279,-3.26176 0.279,-7.51841 0.279,5.48903 0.279,-0.94129 0.279,-10.81945 0.279,10.04838 0.279,3.3 0.279,-5.71011 0.558,6.21415 0.279,-9.12855 0.279,-0.74927 0.279,7.32664 0.279,-1.85312 0.279,0.45095 0.279,-1.49294 0.279,2.09386 0.279,-7.14499 0.558,10.49742 0.558,-6.44812 0.279,2.67339 0.279,-5.24405 0.279,1.91852 0.279,4.01497 0.279,0.89844 0.279,-4.11631 0.279,2.31935 0.279,-0.6383 0.279,-2.07801 0.279,-0.18944 0.279,1.61042 0.279,3.74366 0.279,-4.16742 0.279,1.26373 0.558,-3.71769 0.279,1.91286 0.279,4.05715 0.279,-0.71678 0.279,-3.21976 0.279,2.078 0.279,-2.13871 0.279,-0.37731 0.558,3.04361 0.279,-0.0844 0.279,-2.49056 0.279,1.82359 0.279,-2.09249 0.279,-0.311 0.279,2.05051 0.279,0.99156 0.558,-1.60222 0.279,0.17917 0.279,-0.75126 0.279,-0.28786 0.279,0.7695 0.279,1.15171 0.558,-1.19405 0.279,-4.34372 0.279,9.22652 0.279,-12.36212 0.279,4.75849 0.279,7.45419 0.279,-2.80238 0.279,0.75904 0.279,-4.37257 0.279,4.6685 0.279,-8.9962 0.279,10.39716 0.279,-1.49865 0.279,5.64006 0.279,-22.52187 0.279,28.48301 0.279,-24.75634 0.279,20.44488 0.279,-16.16864 0.279,8.03094 0.279,-6.2779 0.279,8.31521 0.279,-1.41265 0.279,0.67979 0.279,-10.48732 0.279,2.94758 0.279,13.96747 0.279,-2.65279 0.558,-25.52606 0.279,43.05351 0.279,-41.61976 0.279,33.78716 0.279,-20.64303 0.279,-1.6667 0.279,-3.5291 0.279,17.69917 0.279,-11.65217 0.279,5.09846 0.279,10.31103 0.558,-32.62604 0.279,40.30737 0.279,-33.65776 0.279,28.24156 0.837,-24.40896 0.279,16.57997 0.279,-5.73905 0.279,3.43173 0.279,10.26386 0.558,-49.18176 0.279,69.68313 0.279,-58.64713 0.279,49.1229 0.279,-31.71406 0.279,11.3397 0.279,-41.19937 0.279,77.15718 0.279,-72.34323 0.279,54.30854 0.279,-21.04431 0.279,-4.69278 0.279,-30.29493 0.279,70.26425 0.279,-71.23349 0.279,63.15071 0.279,-46.18257 0.279,30.9953 0.279,-53.87906 0.279,86.33044 0.279,-88.505314 0.279,76.785804 0.279,-55.54487 0.279,33.77471 0.279,-34.41265 0.279,52.21913 0.279,-64.18972 0.279,69.97272 0.279,-60.87338 0.279,41.30018 0.279,-67.530761 0.279,107.397051 0.279,-106.040146 0.279,92.318626 0.279,-68.91773 0.279,44.30278 0.279,-76.866101 0.279,121.039031 0.279,-113.745813 0.279,89.637893 0.279,-63.9393 0.279,44.78298 0.279,-34.26393 0.279,22.63771 0.279,-16.69823 0.279,12.24228 0.279,0.25072 0.279,4.13072 0.279,-22.05424 0.279,24.23857 0.279,-14.3867 0.279,-5.0988 0.279,22.0698 0.279,-17.18336 0.279,-4.49575 0.558,15.8083 0.279,-19.88765 0.279,36.26931 0.279,-37.07755 0.279,28.97522 0.279,-47.60147 0.279,66.55405 0.279,-56.92788 0.279,53.20212 0.279,-48.41943 0.279,28.98082 0.279,-39.84365 0.279,41.8285 0.279,-5.74403 0.279,1.18306 0.279,-11.53304 0.279,1.43252 0.279,14.23123 0.279,-34.99133 0.279,44.05998 0.279,-27.05237 0.279,6.81679 0.279,2.78486 0.279,-6.60132 0.279,11.07301 0.279,-28.39272 0.279,39.77949 0.279,-23.41167 0.279,9.48568 0.279,-10.79921 0.279,7.6129 0.279,-12.58944 0.279,7.33898 0.279,11.28566 0.279,0.45043 0.279,-16.87772 0.279,12.34084 0.279,-11.64446 0.279,9.3723 0.279,-7.2479 0.279,9.47744 0.279,-0.76362 0.279,0.26586 0.279,-8.68601 0.279,4.98879 0.279,-3.80736 0.279,2.91633 0.279,1.61819 0.279,2.77109 0.279,-0.6602 0.279,-5.89668 0.279,2.74667 0.279,-2.60081 0.279,4.90348 0.279,-5.638 0.279,7.12328 0.279,-0.38379 0.279,-5.55413 0.279,-1.23129 0.279,3.5108 0.279,-0.35508 0.279,1.53356 0.558,3.99287 0.279,-11.56422 0.279,8.30999 0.279,-5.83461 0.279,2.14143 0.279,-1.55007 0.279,13.77543 0.279,-11.64863 0.279,-1.93942 0.279,-0.57684 0.279,-10.83124 0.279,31.91498 0.279,-20.74069 0.279,12.65031 0.279,-17.55014 0.279,2.13628 0.279,-7.88185 0.279,37.57762 0.279,-44.13657 0.279,44.61444 0.279,-37.40757 0.279,21.1432 0.279,-37.61141 0.279,66.72791 0.279,-68.57781 0.279,58.68208 0.279,-40.05343 0.279,22.05217 0.279,-18.20867 0.279,2.82311 0.279,20.50487 0.279,-23.25629 0.558,20.71667 0.279,-14.37591 0.279,3.45846 0.279,8.19438 0.279,2.07992 0.279,-21.79246 0.279,23.71278 0.279,-31.5628 0.279,40.8531 0.279,-38.0898 0.279,-3.41919 0.279,41.96574 0.279,-27.65495 0.279,4.31438 0.279,7.28711 0.279,-0.58683 0.279,-9.42118 0.279,19.79163 0.279,-61.402233 0.279,88.590513 0.279,-72.09494 0.279,57.15617 0.279,-59.98867 0.279,58.84136 0.279,-36.50142 0.279,14.58932 0.279,-35.56794 0.279,65.54789 0.279,-60.72831 0.279,48.28256 0.279,-38.46881 0.279,32.95289 0.558,-52.49995 0.279,65.63085 0.279,-46.53801 0.279,29.11311 0.279,-16.16554 0.279,-7.99032 0.279,24.05824 0.279,-22.68037 0.279,12.67346 0.279,-25.24889 0.279,54.63828 0.279,-58.44951 0.279,47.77671 0.279,-36.71821 0.279,27.51766 0.558,-45.33366 0.279,75.4203 0.279,-63.68083 0.279,41.59488 0.279,-35.74006 0.279,32.63702 0.279,-28.36198 0.279,8.98096 0.279,-14.4302 0.279,23.03516 0.279,8.43157 0.279,-25.14874 0.279,21.54891 0.279,-15.72271 0.279,10.42675 0.558,-33.95735 0.279,60.19934 0.279,-42.89685 0.279,14.50761 0.279,-4.76174 0.279,6.07546 0.279,-8.47278 0.279,-3.35725 0.279,-20.44905 0.279,56.99266 0.279,-33.63192 0.279,-0.023 0.279,9.579 0.279,-14.20196 0.279,13.68521 0.279,-15.00978 0.279,5.56191 0.279,-4.53211 0.279,27.6113 0.558,-28.83649 0.279,16.22818 0.279,-11.74123 0.279,2.0531 0.558,-4.77857 0.279,16.53364 0.279,3.06956 0.279,-18.98133 0.279,6.86936 0.837,-3.42812 0.279,2.17396 0.279,-8.26337 0.279,22.31109 0.279,-6.58133 0.279,-11.75376 0.279,4.66682 0.279,2.23075 0.279,-3.38256 0.279,1.03199 0.279,5.74834 0.279,-22.16261 0.279,41.42214 0.279,-33.01719 0.279,8.03899 0.279,0.40593 0.279,0.71007 0.279,1.88361 0.279,-6.52827 0.279,1.87622 0.279,3.81991 0.279,12.55593 0.279,-23.27607 0.279,13.32912 0.279,-0.0453 0.279,-5.61341 0.279,-0.69818 0.279,6.66974 0.279,-26.11109 0.279,51.40041 0.279,-44.86824 0.279,22.75581 0.279,-10.03776 0.279,7.31889 0.279,-7.64622 0.279,4.26632 0.279,-35.15824 0.279,75.63489 0.279,-65.62081 0.279,43.82117 0.279,-35.86297 0.279,30.84909 0.279,-22.65396 0.279,2.38754 0.279,-30.55888 0.279,80.50565 0.279,-68.79559 0.279,47.315 0.279,-43.12635 0.279,37.43362 0.279,-27.13586 0.279,4.52447 0.279,-4.20847 0.279,24.89792 0.279,-13.66163 0.279,3.11317 0.279,-12.92989 0.279,14.49673 0.279,-12.955 0.558,9.95433 0.279,-24.51943 0.279,53.59343 0.279,-52.0006 0.279,33.05428 0.279,-22.97274 0.279,15.00514 0.279,-3.70191 0.279,-1.92671 0.279,-32.62491 0.279,66.5164 0.279,-43.3562 0.279,13.87423 0.279,-6.30824 0.279,5.10985 0.279,-6.0654 0.279,-0.79701 0.279,-22.19266 0.279,51.33795 0.279,-31.5318 0.279,11.95002 0.279,-1.58988 0.279,-6.91568 0.279,-0.58529 0.279,-0.0912 0.279,-18.71674 0.279,45.29352 0.279,-29.22653 0.279,2.26833 0.279,16.01372 0.279,-19.36481 0.558,6.00784 0.279,-25.06929 0.279,52.01434 0.279,-36.40712 0.558,21.58723 0.279,-17.77049 0.558,7.64987 0.279,-40.35298 0.279,78.25455 0.279,-56.15332 0.279,32.09158 0.279,-15.53832 0.279,-2.42131 0.279,-1.29918 0.279,4.86005 0.279,-33.78821 0.279,68.15462 0.279,-48.46425 0.279,25.60782 0.279,-14.13859 0.279,2.8725 0.279,-5.66764 0.279,11.24444 0.279,-37.03959 0.279,76.41888 0.279,-70.56913 0.279,43.41224 0.279,-33.99545 0.279,25.85509 0.279,-18.76428 0.279,13.05741 0.279,-41.74276 0.279,85.25625 0.279,-72.96738 0.279,45.5967 0.279,-34.4848 0.279,20.26239 0.279,-13.2072 0.279,14.47006 0.279,-28.69272 0.279,56.62532 0.279,-65.88336 0.279,61.65525 0.279,-48.18086 0.279,23.31127 0.279,-8.94198 0.279,-26.96636 0.279,72.45905 0.279,-72.7389 0.279,57.6458 0.279,-53.73251 0.279,49.38355 0.279,-40.78704 0.279,29.45893 0.279,-84.160499 0.279,146.208979 0.279,-119.10643 0.279,78.19372 0.279,-38.57466 0.279,-9.5484 0.279,31.03802 0.279,-18.89609 0.279,-6.0651 0.558,31.31678 0.279,-44.58044 0.279,42.38675 0.279,-38.12772 0.279,33.74877 0.279,-66.150378 0.279,113.814688 0.279,-112.148526 0.279,93.172156 0.279,-79.28239 0.279,60.66516 0.279,-43.05752 0.279,27.37375 0.279,-75.223838 0.279,136.135868 0.279,-122.765384 0.279,95.709084 0.279,-74.49678 0.279,54.31132 0.279,-42.40968 0.279,37.22596 0.279,-90.995724 0.279,145.891964 0.279,-122.442392 0.279,86.705472 0.279,-63.82537 0.279,47.04415 0.279,-41.12168 0.279,40.75919 0.279,-59.45432 0.279,90.51528 0.279,-90.37796 0.279,74.88838 0.279,-63.88266 0.279,50.09454 0.279,-37.71492 0.279,5.26331 0.558,29.32047 0.279,-46.94981 0.279,62.76469 0.279,-61.21764 0.279,42.00116 0.279,-22.67196 0.279,-35.195531 0.279,92.633481 0.279,-62.05224 0.279,-2.82774 0.279,40.74399 0.279,-48.83485 0.279,32.72796 0.279,-15.49874 0.279,-40.954341 0.279,91.054291 0.279,-63.43583 0.279,13.93413 0.279,19.51933 0.279,-28.23249 0.279,19.3562 0.279,-29.65382 0.558,56.2528 0.279,-52.88908 0.279,38.65391 0.279,-28.68891 0.279,12.14344 0.279,-5.38066 0.279,-11.56871 0.558,36.51103 0.279,-41.27137 0.279,38.53821 0.279,-30.63945 0.279,16.08311 0.558,-13.86802 0.279,6.00615 0.279,31.01995 0.279,-46.47079 0.279,30.43144 0.279,-17.8726 0.279,1.69736 0.279,0.107 0.279,7.6661 0.279,-17.00944 0.279,39.38542 0.279,-38.44076 0.279,16.89544 0.279,-7.68286 0.279,5.71031 0.279,-10.48718 0.279,11.88104 0.279,-14.74703 0.279,32.64996 0.279,-30.00261 0.279,13.98464 0.279,-14.95213 0.279,-1.20181 0.279,12.61348 0.279,-2.13224 0.279,-13.76351 0.279,33.07953 0.279,-17.9159 0.279,6.24868 0.279,-14.60709 0.279,-1.06181 0.279,9.56859 0.279,3.05657 0.279,-5.67245 0.279,9.88223 0.279,-3.61641 0.558,-10.47415 0.279,6.3952 0.279,0.21993 0.558,-9.24941 0.279,22.05192 0.279,-14.37893 0.279,6.82884 0.279,-7.77365 0.279,-4.15459 0.279,4.69201 0.558,-5.54505 0.279,23.40742 0.279,-18.75756 0.279,9.98883 0.279,1.20994 0.279,-10.48981 0.279,-2.59831 0.279,-7.30904 0.279,21.36177 0.279,-0.24333 0.279,-17.14854 0.279,14.15163 0.279,-16.07482 0.279,12.54694 0.279,-8.92788 0.279,-4.61181 0.279,31.24454 0.279,-26.21971 0.279,-0.49465 0.279,13.82292 0.279,-17.36035 0.279,11.11086 0.279,-17.15455 0.279,24.88816 0.279,6.83457 0.279,-31.78587 0.279,25.50844 0.279,-12.66737 0.279,-0.94667 0.558,-6.28721 0.279,31.98713 0.279,-26.26992 0.279,-8.74208 0.279,27.47418 0.279,-21.98828 0.279,6.31579 0.279,-16.79878 0.558,38.62856 0.279,-34.07601 0.558,25.90903 0.279,-25.66254 0.279,20.08149 0.279,-35.13278 0.279,52.57248 0.558,-40.37696 0.279,29.79676 0.279,-17.7074 0.279,-4.87648 0.279,0.77789 0.279,1.58164 0.279,19.8874 0.279,-11.12574 0.279,-5.39566 0.279,6.32176 0.279,-7.5756 0.279,2.20813 0.279,-11.59396 0.279,19.83568 0.279,4.46357 0.279,-10.30751 0.279,-4.86991 0.558,7.61405 0.558,-13.43154 0.279,16.19947 0.279,2.44513 0.558,-13.92725 0.279,7.05475 0.279,0.5421 0.279,-8.24521 0.279,3.36473 0.279,0.93876 0.279,7.35078 0.279,-1.13144 0.279,-8.10554 0.279,3.62903 0.279,-1.02903 0.279,-3.31237 0.279,2.03797 0.558,7.17786 0.558,-7.60533 0.279,2.77727 0.558,-3.21113 0.279,13.33976 0.279,-15.65507 0.558,16.13751 0.279,-5.94957 0.279,-1.39164 0.279,-6.04713 0.279,6.27268 0.279,-7.774 0.279,10.72573 0.279,-0.84551 0.558,-15.35853 0.837,22.73923 0.279,-21.38749 0.279,10.6573 0.279,-29.64203 0.279,54.64142 0.279,-39.33001 0.279,20.01417 0.279,4.05887 0.558,-47.68095 0.279,61.17203 0.279,-7.51777 0.279,-52.32315 0.279,65.54397 0.279,-41.1573 0.279,4.83513 0.279,-46.864255 0.279,96.874135 0.279,-34.00909 0.279,-49.76643 0.279,81.18974 0.279,-53.04326 0.279,4.28343 0.279,-11.57247 0.279,67.97115 0.279,-100.601832 0.279,68.595062 0.279,16.53341 0.279,-65.16012 0.279,32.12499 0.279,9.8195 0.279,-46.77392 0.279,25.38927 0.279,64.43102 0.279,-88.04923 0.279,17.46753 0.279,40.68401 0.558,-54.1235 0.279,105.05591 0.279,-118.85273 0.279,0.157602 0.279,98.322938 0.279,-51.20974 0.279,-28.04811 0.279,22.98268 0.279,-26.34966 0.279,72.25172 0.279,-52.98143 0.279,-23.26087 0.279,56.93055 0.279,-6.42878 0.279,-29.8293 0.279,-76.261905 0.279,154.906575 0.279,-18.47062 0.279,-114.309647 0.279,42.505527 0.279,80.09087 0.558,-92.19498 0.279,35.28667 0.279,-22.01747 0.279,31.89794 0.279,11.90445 0.279,-32.64535 0.279,-2.14414 0.279,28.42899 0.279,-63.136943 0.279,80.361513 0.279,-0.10346 0.279,-73.07193 0.279,25.62855 0.279,37.12382 0.279,-8.38614 0.279,-48.17406 0.279,84.70684 0.279,-30.06902 0.279,-80.679264 0.279,62.811024 0.279,28.15502 0.279,-17.43815 0.558,-59.971852 0.279,82.068092 0.279,-4.4219 0.279,-47.16591 0.279,-14.45966 0.279,36.06077 0.279,4.97843 0.279,-4.44886 0.279,3.50016 0.279,-60.674357 0.279,63.429887 0.279,23.7839 0.558,-49.5781 0.279,-3.43182 0.558,24.24158 0.279,-32.28016 0.558,46.51628 0.558,-28.7365 0.279,16.25539 0.279,-26.87139 0.279,47.28387 0.279,-21.65162 0.279,-34.54239 0.558,42.5431 0.279,-1.37485 0.279,-22.44331 0.279,0.11309 0.279,8.93284 0.279,20.29079 0.279,-34.26827 0.279,0.46617 0.279,20.64646 0.279,-6.70592 0.279,-3.96265 0.279,-10.7579 0.279,7.93873 0.279,17.49403 0.279,-3.6464 0.279,-18.77669 0.279,12.06831 0.279,3.92453 0.279,-12.30914 0.279,-0.99295 0.279,9.81837 0.279,0.11933 0.279,6.82246 0.279,-2.19347 0.279,-29.56428 0.279,48.12158 0.279,-8.27809 0.279,-38.51273 0.279,5.59861 0.279,24.36838 0.279,6.6132 0.279,-25.26789 0.279,3.84924 0.279,11.2116 0.279,-2.67402 0.279,-6.55091 0.279,-0.77419 0.279,8.90562 0.279,-7.92562 0.279,7.45276 0.279,-13.4767 0.279,9.41065 0.279,4.74982 0.558,-7.73865 0.279,7.29291 0.279,-7.2691 0.279,1.91355 0.279,4.12708 0.279,-6.1828 0.279,5.87563 0.279,2.21076 0.279,-5.23277 0.279,-2.75903 0.279,6.1812 0.279,2.13968 0.279,-9.43573 0.279,6.94366 0.279,-18.10017 0.279,28.5965 0.558,-17.43999 0.279,1.23418 0.279,8.24233 0.279,-4.77416 0.279,-9.64611 0.279,4.31998 0.279,15.65029 0.279,-10.2222 0.279,-4.22391 0.279,4.8957 0.558,-9.49219 0.279,14.39135 0.279,-0.47504 0.279,-7.65638 0.279,-1.5031 0.279,5.28062 0.558,-7.5339 0.279,11.43274 0.279,-1.85797 0.558,-5.9512 0.279,3.77798 0.558,-7.64311 0.279,9.8602 0.279,2.65828 0.279,-7.14282 0.279,-2.78833 0.279,1.85398 0.279,-1.25942 0.279,1.25942 0.279,2.43563 0.279,1.28321 0.279,0.0501 0.558,-4.95479 0.279,0.93271 0.279,2.95603 0.279,-1.51618 0.279,0.40471 0.279,1.82112 0.279,4.74181 0.279,-6.03721 h 0.279 l 0.279,-1.14395 0.279,-2.94264 0.279,4.6142 0.279,-0.23975 0.279,-1.9848 0.558,1.25764 0.279,-0.0423 0.279,-0.84869 0.279,0.30945 0.279,0.0441 0.279,0.90924 0.279,-1.15313 0.279,1.92087 0.279,-1.05875 0.279,0.45717 0.837,-2.49638 0.558,2.86659 h 0.279 v 0"
           style="fill:none;stroke:#000000;stroke-width:0.30000001;stroke-linecap:square;stroke-linejoin:round;stroke-miterlimit:100000"
           id="path9"
           inkscape:connector-curvature="0" />
      </g>
    </g>
  </g>
  <defs
     id="defs17">
    <clipPath
       id="p034ddf5e46"
       style="stroke-linecap:butt;stroke-linejoin:round;stroke-miterlimit:100000">
      <rect
         height="223.2"
         width="334.79999"
         x="54"
         y="28.799999"
         id="rect14"
         style="stroke-linecap:butt;stroke-linejoin:round;stroke-miterlimit:100000" />
    </clipPath>
  </defs>
  <g
     style="fill:none;stroke:none;stroke-linecap:square;stroke-linejoin:round;stroke-miterlimit:10"
     id="g4826"
     transform="matrix(0.43464375,0,0,0.62555258,7.35437,-4.0028142)">
    <g
       transform="matrix(1.0060693,0,0,1.0109739,-0.0331199,-25.325668)"
       id="g4824"
       clip-path="url(#p.0)"
       style="stroke-linecap:butt;stroke-linejoin:round;stroke-miterlimit:100000">
      <path
         style="fill:#000000;fill-rule:evenodd;stroke-linecap:butt;stroke-linejoin:round;stroke-miterlimit:100000"
         inkscape:connector-curvature="0"
         id="path4822"
         d="m 239.27296,92.99213 11.70079,-11.70079 11.70078,11.70079 h -5.85038 v 38.88188 h -11.7008 V 92.99213 Z" />
    </g>
  </g>
  <text
     x="28.5"
     y="25"
     font-size="16px"
     id="text29">jumped over the lazy dog</text>
  <rect
     style="fill:none;stroke-width:0.74999994;stroke-linecap:butt;stroke-linejoin:round;stroke-miterlimit:100000"
     id="rect28"
     width="231"
     height="163.5"
     x="0"
     y="0" />
</svg>
