<?xml version="1.0" encoding="UTF-8" standalone="no"?>
<svg
   xmlns:dc="http://purl.org/dc/elements/1.1/"
   xmlns:cc="http://creativecommons.org/ns#"
   xmlns:rdf="http://www.w3.org/1999/02/22-rdf-syntax-ns#"
   xmlns:svg="http://www.w3.org/2000/svg"
   xmlns="http://www.w3.org/2000/svg"
   xmlns:sodipodi="http://sodipodi.sourceforge.net/DTD/sodipodi-0.dtd"
   xmlns:inkscape="http://www.inkscape.org/namespaces/inkscape"
   height="115"
   width="101"
   id="svg"
   version="1.1"
   sodipodi:docname="ergodic_hmm.svg"
   inkscape:version="0.92.2 5c3e80d, 2017-08-06">
  <marker
     id="triangle"
     viewBox="0 0 10 10"
     refX="0"
     refY="5"
     markerUnits="strokeWidth"
     markerWidth="4"
     markerHeight="6"
     orient="auto"
     transform="translate(-0.5,-17.623069)">
    <path
       d="M 0,0 10,5 0,10 Z"
       id="path2"
       inkscape:connector-curvature="0" />
  </marker>
  <defs
     id="defs7">
    <style
       type="text/css"
       id="style5">
  svg {
    font: 400 16px/1.55em -apple-system, BlinkMacSystemFont, &quot;Roboto&quot;, Helvetica, sans-serif;
  }
  </style>
  </defs>
  <g
     transform="translate(-34.5,-17.623069)"
     id="g39">
    <circle
       cx="50"
       cy="50"
       r="15"
       id="circle9"
       style="fill:#d3d3d3;stroke:#000000;stroke-width:1" />
    <circle
       cx="120"
       cy="50"
       r="15"
       id="circle11"
       style="fill:#d3d3d3;stroke:#000000;stroke-width:1" />
    <circle
       cx="85"
       cy="100"
       r="15"
       id="circle13"
       style="fill:#d3d3d3;stroke:#000000;stroke-width:1" />
    <text
       x="46"
       y="55"
       id="text15">a</text>
    <text
       x="116"
       y="55"
       id="text17">b</text>
    <text
       x="81"
       y="105"
       id="text19">c</text>
    <path
       d="M 40,39 C 30,10 70,14 60,34"
       id="path21"
       inkscape:connector-curvature="0"
       style="fill:none;stroke:#000000;marker-end:url(#triangle)" />
    <path
       d="M 63,42 Q 85,30 103,41"
       id="path23"
       inkscape:connector-curvature="0"
       style="fill:none;stroke:#000000;marker-end:url(#triangle)" />
    <path
       d="M 107,58 Q 85,70 67,59"
       id="path25"
       inkscape:connector-curvature="0"
       style="fill:none;stroke:#000000;marker-end:url(#triangle)" />
    <path
       d="M 110,39 C 100,10 140,14 130,34"
       id="path27"
       inkscape:connector-curvature="0"
       style="fill:none;stroke:#000000;marker-end:url(#triangle)" />
    <path
       d="m 75,111 c -10,29 30,25 20,5"
       id="path29"
       inkscape:connector-curvature="0"
       style="fill:none;stroke:#000000;marker-end:url(#triangle)" />
    <path
       d="m 59,62 q 16,8 19,20"
       id="path31"
       inkscape:connector-curvature="0"
       style="fill:none;stroke:#000000;marker-end:url(#triangle)" />
    <path
       d="M 72,92 Q 55,80 52,69"
       id="path33"
       inkscape:connector-curvature="0"
       style="fill:none;stroke:#000000;marker-end:url(#triangle)" />
    <path
       d="M 111,62 Q 95,70 92,82"
       id="path35"
       inkscape:connector-curvature="0"
       style="fill:none;stroke:#000000;marker-end:url(#triangle)" />
    <path
       d="M 98,92 Q 115,80 118,69"
       id="path37"
       inkscape:connector-curvature="0"
       style="fill:none;stroke:#000000;marker-end:url(#triangle)" />
  </g>
</svg>
