<?xml version="1.0" encoding="UTF-8"?>
<svg width="276px" height="118px" viewBox="0 0 276 118" version="1.1" xmlns="http://www.w3.org/2000/svg" xmlns:xlink="http://www.w3.org/1999/xlink">
    <!-- Generator: Sketch 47.1 (45422) - http://www.bohemiancoding.com/sketch -->
    <defs>
    <style>
        svg {
            font: 200 11px -apple-system, BlinkMacSystemFont, &quot;Roboto&quot;, Helvetica, sans-serif;
        }
    </style>

    </defs>
    <g id="Page-1" stroke="none" stroke-width="1" fill="none" fill-rule="evenodd">
        <g id="speech_recognition" transform="translate(0.000000, -2.000000)">
            <polyline id="path9" stroke="#000000" stroke-width="0.2" fill="#D8D8D8" fill-rule="nonzero" stroke-linecap="square" stroke-linejoin="round" points="0.915383066 86.1456743 1.14474087 86.3667768 1.83281426 86.1456743 2.75024545 86.3239281 3.66767664 86.165393 4.58510784 86.3461071 5.27318124 86.1085366 5.96125463 86.3239593 6.87868582 86.1457413 7.33740142 86.3461607 8.48419041 86.2329347 8.942906 86.4237359 9.40162161 85.6307255 9.63097941 87.4492977 9.8603372 86.5560866 10.3190528 85.9917965 10.5484106 86.6456421 10.7777684 85.9608611 11.0071262 86.5714471 11.2364839 86.299378 11.4658418 82.8037603 11.6951996 85.1708826 12.1539151 83.9910901 12.383273 85.1157677 12.6126308 86.863168 12.8419885 86.1085768 13.0713463 84.0466917 13.3007042 83.6552345 13.5300619 84.564793 13.7594198 83.0556375 13.9887777 91.0973465 14.2181354 84.564793 14.4474932 85.7346101 14.6768509 89.7866545 14.9062087 84.4270661 15.1355666 87.85733 15.3649243 89.0453431 15.5942821 87.5033901 16.0529978 84.1967205 16.2823556 84.5054362 16.5117133 85.6307255 16.7410712 89.1503038 16.970429 85.8298678 17.1997867 86.3239995 17.4291445 85.3989911 17.6585023 82.663064 17.8878601 83.5486574 18.117218 85.8159629 18.3465757 89.3916251 18.8052914 87.2376214 19.0346491 84.7461055 19.2640069 86.1654465 19.4933647 84.4563583 19.9520803 87.3168354 20.181438 87.9476224 20.410796 87.1215466 20.6401538 84.4173318 21.0988693 89.9759196 21.3282272 88.4390124 21.5575849 72.7217022 21.7869427 101.125803 22.0163004 75.225194 22.2456583 97.857723 22.4750162 79.58031 22.7043739 89.1241552 22.9337317 74.9954735 23.1630896 94.6577553 23.3924473 81.0334264 23.6218051 85.7081935 23.8511628 94.1471467 24.0805207 52.7207548 24.3098785 111.760283 24.5392362 80.412204 24.7685941 73.9484113 24.997952 99.239765 25.2273097 84.9860738 25.4566675 93.0154363 25.6860252 71.9697813 26.1447409 93.5798649 26.3740986 88.7060537 26.6034564 93.9365063 26.8328144 69.691058 27.0621721 109.863863 27.2915299 79.7076284 27.5208876 72.8875693 27.7502455 93.9228649 27.9796033 89.3916251 28.208961 96.6106028 28.4383188 57.4757906 28.8970344 108.520807 29.1263923 87.9176604 29.3557501 90.1789467 29.5851079 84.9541694 29.8144657 50.7501114 30.0438234 102.179979 30.2731813 99.269651 30.502539 79.1532333 30.7318968 89.5020781 30.9612546 87.6098512 31.4199703 95.5917612 31.6493281 91.7672671 31.8786858 73.966585 32.1080437 88.2020492 32.3374014 89.4427212 32.5667592 94.9366028 32.796117 71.2391463 33.2548326 93.4900325 33.4841905 85.5432195 33.7135482 94.7708964 33.9429061 89.7866545 34.1722638 75.2999516 34.4016216 80.7724579 34.8603372 94.956433 35.089695 80.4925834 35.3190527 91.4613423 35.5484106 88.8144036 35.7777685 66.7776523 36.0071262 99.674402 36.236484 93.875082 36.4658418 80.0143258 36.9245574 91.9737548 37.1539151 78.3851659 37.3832729 76.2010395 37.6126308 94.1742241 37.8419886 91.4913846 38.0713464 82.9039432 38.3007042 91.8116743 38.530062 91.2725862 38.7594198 68.2334005 38.9887776 94.7642521 39.2181353 94.3496648 39.4474932 82.6219433 39.6768509 84.9119324 39.9062088 91.1889695 40.1355667 77.0510938 40.3649244 82.3533659 40.5942822 93.9365063 41.0529977 83.4781864 41.2823556 91.0743727 41.5117133 89.1415965 41.7410711 71.0607586 41.9704289 92.6967452 42.1997868 93.2746678 42.4291446 84.8180679 42.6585024 88.68788 42.8878602 90.0411841 43.117218 78.1087119 43.3465757 79.9999788 43.5759335 95.23946 44.0346491 83.1236302 44.264007 88.6056698 44.4933648 87.4492977 44.7227226 76.9535365 44.9520804 89.4597116 45.1814381 92.9872605 45.4107959 86.5405162 45.6401538 84.2823109 45.8695115 90.3952937 46.328227 78.6845715 46.557585 88.4390124 46.7869428 92.1201086 47.2456583 84.234653 47.4750162 87.9376514 47.7043739 81.0034376 47.9337317 83.2866217 48.1630894 89.951374 48.3924473 88.4949087 48.6218052 85.1377324 48.8511629 87.5887349 49.0805207 87.1684231 49.3098786 82.3372418 49.5392363 86.8241192 49.7685941 88.2976597 49.9979518 85.7479389 50.4566675 88.5227274 50.6860252 84.4465794 50.9153831 84.1120098 51.144741 87.3835555 51.3740987 86.5560866 51.8328142 86.0908095 52.0621721 87.0257754 52.2915299 83.8353414 52.7502454 88.5227274 53.2089611 85.6434649 53.4383189 86.8372069 53.6676766 84.4955947 53.8970345 85.3522665 54.1263923 87.1450607 54.35575 87.5462389 54.5851078 85.7081935 54.8144656 86.7438469 55.0438234 86.4588285 55.2731813 85.53094 55.7318969 86.1654465 55.9612547 87.8370934 56.1906124 85.9762261 56.4199703 86.5405162 56.8786858 84.8804656 57.1080436 85.7346101 57.3374016 87.5462389 57.5667593 87.2261769 57.7961171 85.7884658 58.0254748 86.7163498 58.2548327 85.7613571 58.942906 86.9519332 59.4016216 85.8021429 59.6309795 86.6164258 59.8603372 85.6820717 60.3190529 86.4588106 60.5484106 86.9015693 61.0071262 86.1861342 61.4658418 85.9306803 61.9245575 86.1457457 62.1539153 86.6600159 62.6126308 86.1268398 62.8419886 84.1872496 63.0713464 88.3071439 63.3007042 82.7871182 63.5300619 84.9119145 63.7594198 88.2404149 63.9887777 86.9890753 64.2181354 87.3280075 64.4474932 85.375535 64.676851 87.4601484 64.9062088 83.4430983 65.1355666 88.0857154 65.3649243 87.4165271 65.5942822 89.9349686 65.8236399 79.8783358 66.0529978 92.5967811 66.2823556 81.5423962 66.5117134 90.671596 66.7410712 83.4518547 66.970429 87.0378897 67.1997867 84.2346351 67.4291446 87.9476045 67.6585023 87.3168175 67.8878601 87.6203624 68.1172179 82.9374863 68.3465758 84.2536617 68.5759336 90.4905202 68.8052914 89.3059767 69.264007 77.9078906 69.4933647 97.132464 69.7227225 78.5480993 69.9520804 93.6349932 70.1814381 84.417314 70.410796 83.6730867 70.6401538 82.0972467 70.8695116 90.0004117 71.0988694 84.7973981 71.3282271 87.0740004 71.5575849 91.6781581 72.0163005 77.1097362 72.2456583 95.1080827 72.4750161 80.0789695 72.704374 92.6896008 73.3924473 81.7903306 73.6218052 89.193742 73.8511629 86.6310987 74.0805207 88.1634603 74.3098785 92.7465554 74.7685942 70.7855504 74.997952 101.900979 75.2273097 75.7134271 75.4566676 97.64815 75.6860253 83.4869517 75.9153831 88.5504389 76.1447409 70.15379 76.3740987 104.606587 76.6034565 72.3033507 76.8328142 96.5536036 77.0621721 87.1567419 77.29153 85.0612869 77.5208877 71.5337696 77.7502455 102.908685 77.9796033 71.1009773 78.2089611 99.299502 78.4383189 78.6777173 78.6676766 92.5179691 78.8970344 68.4594907 79.1263924 107.0084 79.3557501 67.4883498 79.5851079 101.775318 79.8144657 76.9730095 80.0438235 92.0543441 80.2731813 76.6881518 80.502539 100.005426 80.7318968 71.342955 80.9612547 102.587694 81.1906124 75.4060599 81.4199703 93.8477233 81.6493282 63.693386 81.8786859 111.649115 82.1080437 64.2992813 82.3374014 105.52208 82.5667592 74.7484233 82.7961171 94.5308299 83.0254748 60.2080072 83.2548326 114.255255 83.4841906 63.4646291 83.7135483 103.490407 83.9429061 74.9397558 84.1722638 94.9365849 84.4016217 79.6368002 84.6309795 89.7451587 84.8603372 82.288941 85.089695 87.7554548 85.5484106 89.711888 85.7777685 79.8640648 86.0071262 90.6872512 86.2364841 84.263195 86.4658419 81.9864409 86.6951996 91.8412121 86.9245574 84.1683705 87.1539152 82.1608948 87.6126308 89.2197344 87.8419886 80.3393531 88.0713465 96.5345949 88.3007043 79.9784517 88.530062 92.9166823 88.7594198 71.6613201 88.9887776 101.379529 89.2181354 75.9596691 89.4474932 99.715875 89.6768509 78.0952714 89.9062088 91.0360026 90.1355667 73.2447198 90.3649244 91.9222925 90.5942822 89.3574256 90.8236401 89.8856943 91.0529978 84.7358756 91.2823556 85.375535 91.5117133 91.7301696 91.7410712 76.1055809 91.970429 95.7795706 92.1997868 83.6999453 92.4291446 86.7438291 92.6585025 87.9873454 92.8878602 85.039675 93.117218 89.9840777 93.3465757 77.3059493 93.5759336 95.0685829 93.8052914 84.61463 94.0346491 88.8502463 94.2640069 84.0281028 94.4933649 87.4274715 94.7227226 81.8059412 94.9520804 85.0829971 95.1814381 90.1223538 95.6401538 82.7871182 95.8695115 88.2976418 96.0988693 83.098071 96.3282271 87.28306 96.557585 84.0466739 96.7869428 88.2786108 97.0163005 87.9376335 97.4750162 84.1778056 97.7043739 86.4054372 97.9337318 84.7053465 98.1630895 86.0075678 98.3924473 86.7301341 98.6218051 87.9675018 98.851163 87.6727044 99.0805208 85.039675 99.3098786 86.2661385 99.5392363 85.1048055 99.7685942 87.2943438 99.9979519 84.7768221 100.22731 87.9575621 100.686025 85.3061179 100.915383 84.7563131 101.144741 86.3239816 101.603457 86.8502053 102.062172 88.6331313 102.29153 83.4693898 102.520888 87.1800283 102.750245 84.5747149 102.979603 85.5309221 103.208961 84.8387733 103.438319 90.9898807 103.667677 85.7884479 103.897035 84.9224437 104.126392 84.6648688 104.35575 79.828423 104.585108 94.0793371 104.814466 84.81805 105.043823 90.4667605 105.273181 82.6301415 105.502539 83.5840491 105.731897 80.0645869 105.961255 96.8440251 106.190612 77.1358358 106.419971 97.057407 106.649328 80.3539009 106.878686 89.7949197 107.108044 73.0003934 107.337401 102.796236 107.56676 72.1743623 107.796117 98.377521 108.025475 80.4925656 108.254833 90.3394644 108.484191 82.2087938 108.713548 83.4693898 108.942906 92.6253768 109.172264 82.2408053 109.63098 91.4913668 109.860337 85.0721286 110.089696 86.6164258 110.319053 90.2754413 110.54841 91.2041826 110.777769 81.4732514 111.007126 92.0616582 111.236484 77.9680022 111.465842 96.210032 111.695199 79.2018914 111.924558 77.6751293 112.153915 96.4139834 112.383273 84.0652896 112.612631 85.9917786 112.841989 89.2456731 113.071346 88.9836374 113.300704 84.7768221 113.530062 93.6143279 113.759419 66.1965464 113.988778 105.754641 114.218135 73.5622723 114.447494 99.08407 114.676851 72.2974833 114.906208 98.571765 115.135567 82.2728794 115.364924 88.787411 115.594282 72.90535 115.82364 102.174281 116.052998 75.0574247 116.282356 96.6169123 116.511713 79.4395333 116.741071 94.1539027 117.199787 70.7112348 117.429144 100.01721 117.658503 79.2367116 117.88786 92.2365139 118.117218 85.0181568 118.346576 81.4502597 118.575933 92.1929239 118.805292 82.0655165 119.034649 87.724564 119.264006 76.450242 119.493365 100.847733 119.722722 74.7484233 119.952081 96.0820349 120.181438 79.6863469 120.410796 91.973737 120.869511 71.7310142 121.098869 105.408247 121.328227 76.9730095 121.557585 95.5462645 121.786943 79.5873473 122.016301 94.160672 122.245658 81.4962699 122.475016 85.5065149 122.704374 79.0630348 122.933731 89.3488656 123.16309 93.1137929 123.392447 81.8841906 123.621806 91.5063701 123.851163 84.4857488 124.08052 89.1415787 124.539236 73.9786904 124.768595 100.859347 124.997951 81.7047268 125.22731 88.1827726 125.456668 86.0565251 125.686025 88.7693847 125.915384 84.986056 126.14474 83.4869517 126.374099 74.3558899 126.603457 99.804676 126.832814 84.7871012 127.291529 89.0541173 127.520888 82.7125526 127.750246 88.8233743 127.979603 82.1210958 128.208961 84.6046412 128.43832 82.5809297 128.667677 94.9101326 129.126392 82.0338488 129.35575 89.2801763 129.585109 84.037395 129.814465 84.9541605 130.273181 82.8203979 130.502539 90.2031217 130.731898 91.5737645 130.961254 83.0980799 131.190613 86.1654376 131.878686 84.634688 132.108043 85.6054208 132.337402 81.9155994 132.56676 91.8781131 132.796117 88.9393687 133.025475 83.6909924 133.254832 85.7748556 133.484191 86.7709467 133.713548 85.2605408 133.942906 85.7213527 134.172264 88.2881442 134.401622 78.3919308 134.630979 96.8880527 134.860337 82.1449716 135.089695 85.7346011 135.54841 86.2329258 135.777768 87.0740093 136.007127 84.1589577 136.236484 84.9967414 136.465842 86.702436 136.695199 92.3090031 136.924557 81.9155994 137.153916 87.8674171 137.612631 85.3406479 137.841989 85.0288913 138.071346 88.0071132 138.300705 76.3477952 138.530061 99.299488 138.75942 79.2645883 138.988778 89.4256817 139.218136 84.9435465 139.447494 88.2116317 139.67685 84.7973847 139.906209 86.7024136 140.135567 71.003295 140.364924 104.776348 140.594282 75.4748564 140.823639 95.042211 141.052998 79.028411 141.282356 92.803376 141.511713 82.6877614 141.741071 83.7538635 141.97043 70.1084853 142.199787 106.056466 142.429144 75.3373483 142.658502 96.4647938 142.88786 77.2076954 143.117219 93.9228337 143.346575 81.8059278 143.575934 83.8262277 143.805291 81.9470304 144.034649 93.0646347 144.264008 86.9643422 144.493364 88.354458 144.722723 82.5809074 144.95208 89.054095 145.181439 83.2693321 145.640153 87.7142135 145.869512 76.7656154 146.09887 100.696552 146.328227 77.4768577 146.557585 92.2365005 146.786943 81.9785419 147.016301 88.6787485 147.245658 87.0257442 147.475016 86.1654153 147.704374 71.597498 147.933732 101.298895 148.163089 81.9391626 148.392448 88.1343869 148.621805 85.3175847 148.851163 87.5992729 149.08052 84.8909054 149.309878 84.5350186 149.539237 74.6253871 149.768594 97.54919 149.997953 83.4693764 150.22731 88.8053882 150.456667 88.0954631 150.686026 85.0074223 150.915383 84.7460743 151.374099 76.3478131 151.603456 96.5726123 151.832815 83.5221649 152.062171 84.5350365 152.29153 91.6856017 152.520888 83.0386828 152.979603 85.7213482 153.20896 74.5272225 153.438319 97.753052 153.667677 81.4962744 154.126392 91.1355648 154.355751 83.2005535 154.814466 86.6164303 155.043823 68.5977178 155.273181 103.540521 155.50254 78.4665232 155.731897 92.7962941 155.961255 85.8580079 156.190612 84.7768266 156.41997 84.1967071 156.649329 86.3668527 156.878685 71.2794901 157.108044 101.712398 157.337401 80.0717804 157.56676 91.5063746 157.796118 85.1931063 158.025474 86.4757563 158.254833 83.9449996 158.48419 88.9659505 158.713548 72.4267575 158.942906 106.549884 159.172264 75.0388313 159.401622 94.4235874 159.63098 79.2436864 159.860337 90.7886933 160.089695 82.4099276 160.319053 88.2404193 160.548411 69.6011319 160.777769 107.670386 161.007126 75.0884495 161.236484 95.4486268 161.465842 80.0502176 161.695199 89.0979306 161.924558 83.2005535 162.153915 89.6618322 162.383274 76.8497457 162.61263 102.134504 162.841988 72.7157768 163.071347 100.246537 163.300704 78.7324616 163.530063 89.1415831 163.75942 85.1487438 163.988777 73.1075243 164.218136 105.462478 164.447493 72.9825636 164.676851 98.722995 164.906209 74.7299549 165.135567 96.7810647 165.364925 78.5685324 165.594281 91.7227528 165.82364 54.1427813 166.052998 119.429101 166.282356 66.2448129 166.511713 101.160454 166.741071 83.93581 166.970429 79.6721875 167.199787 93.5315149 167.429144 85.0938923 167.658502 82.3856588 168.117218 96.3694602 168.346577 76.4630708 168.575933 95.3899174 168.805291 78.3648445 169.03465 93.4345961 169.264007 63.8966377 169.493365 114.718018 169.722722 64.6406247 169.952081 106.244548 170.181439 70.8427862 170.410795 97.931444 170.640154 78.7050805 170.869511 90.9282108 171.09887 57.3387036 171.328227 118.127103 171.557584 63.3089915 171.786943 106.045723 172.016301 72.7808671 172.245658 97.032361 172.475016 78.0952759 172.704374 94.7176882 172.933732 54.0856012 173.163091 119.230365 173.392447 64.5564784 173.621805 103.27285 173.851163 74.7730716 174.080521 95.7795751 174.309879 77.4176169 174.539236 95.6177134 174.768594 69.0697285 174.997952 109.487284 175.227309 69.1310457 175.456668 102.570762 175.686025 74.0454016 175.915384 96.4139879 176.144742 79.5732415 176.374098 81.9234538 176.832814 95.015848 177.062173 74.0514699 177.29153 102.077626 177.520888 74.7422701 177.750246 93.4969403 177.979602 83.3732882 178.208961 67.6575181 178.438319 109.020909 178.667677 81.3128811 178.897035 80.0502176 179.126392 98.243527 179.35575 76.4374267 179.585108 91.0513586 179.814466 84.1307461 180.043823 65.8435093 180.273181 106.501748 180.502539 78.1759098 180.731898 84.3978811 180.961254 93.1137974 181.190612 80.5072161 181.419971 89.1502904 181.649328 75.9090463 182.108043 101.027465 182.337402 77.4110396 182.56676 94.6710708 182.796117 81.8606854 183.025475 87.2830645 183.254832 84.8804522 183.484191 79.7147058 183.942905 96.0178823 184.172264 77.5890834 184.401621 94.7974514 184.63098 81.1160965 184.860337 88.2976463 185.319053 82.1051949 185.548412 84.7871057 185.777768 98.638364 186.007126 77.8878817 186.236484 91.4763545 186.465842 83.4957483 186.695201 84.2536661 187.153915 87.7245685 187.383273 80.1293869 187.612631 97.716057 187.841989 80.5512035 188.071346 88.095481 188.300705 84.6648732 188.530062 87.2146833 188.759419 82.5318697 188.988778 87.83708 189.218135 81.2521266 189.447494 95.8312294 189.676852 82.434241 189.906209 88.6787664 190.135567 82.0022302 190.364924 81.465589 190.594282 87.0978539 190.82364 86.1457502 191.052998 79.9999654 191.282356 94.770883 191.511712 86.7709422 191.741071 89.5611492 191.970429 83.0386828 192.199787 82.5645556 192.429145 86.8371935 192.658502 88.2020358 192.88786 85.6691313 193.117219 90.0818181 193.346576 88.4669918 193.805292 83.7899965 194.034649 86.6456287 194.722722 82.6137182 194.952081 92.4605054 195.181438 86.0399187 195.410797 89.0891831 195.640153 85.6180352 195.869512 83.7628968 196.09887 85.8580079 196.557585 83.381991 196.786942 93.8340461 197.016301 85.458281 197.245659 89.9185677 197.475016 90.4588391 197.704374 85.7748511 197.933731 84.6146344 198.16309 81.3509476 198.392447 90.8895639 198.851163 83.1236168 199.080522 89.4427078 199.309878 82.2648597 199.539236 87.8674126 199.768594 83.8808693 199.997952 81.8215696 200.227311 95.7731139 200.456667 84.0652941 200.686026 83.8444193 200.915383 90.0167322 201.144741 82.2648597 201.374099 87.2261635 201.603456 79.5661864 201.832815 90.6794325 202.062172 93.7312555 202.291529 79.5379926 202.520888 90.9282108 202.750245 85.2718826 202.979604 84.8491685 203.438319 82.0417568 203.667677 96.3248878 203.897034 84.5946479 204.126392 80.6910693 204.35575 92.9590444 204.585108 83.1406742 204.814466 85.9608477 205.043823 78.4597316 205.502539 95.7084433 205.731897 80.49257 206.190612 92.0616627 206.41997 80.6026346 206.649329 89.5695707 206.878686 73.8818207 207.108043 97.356875 207.566759 79.3274549 207.796118 92.6325257 208.025474 84.7256858 208.254833 82.5482037 208.484191 82.8955529 208.713548 83.6017986 208.942907 92.4820683 209.172263 87.5141201 209.401622 85.1048099 209.63098 87.9276492 209.860337 84.544936 210.089695 85.5309266 210.319052 80.3539054 210.548411 89.2110807 210.777769 91.2041871 211.007126 86.6016011 211.236484 84.4270527 211.6952 87.8269349 212.153915 81.8293839 212.383273 89.0628916 212.612632 90.1547092 213.071347 83.93581 213.300704 87.0859494 213.530062 87.328012 213.759421 83.6462995 213.988777 85.1487438 214.218136 85.5679259 214.447493 88.8502508 214.676852 88.3450318 214.906209 84.7256858 215.135566 86.3461473 215.364925 85.8866571 215.594283 84.4075931 215.82364 85.3176026 216.282355 88.522714 216.741071 85.1267255 216.970429 86.3668527 217.429145 84.9329951 217.658502 90.8895639 217.88786 83.8991457 218.346576 91.1049866 218.575933 88.4483404 218.805291 87.8269349 219.03465 85.1267255 219.264007 87.9276492 219.493365 84.4563449 219.722722 89.2456776 219.95208 88.8681342 220.410796 82.0101292 221.098869 92.1638192 221.328228 82.6137182 221.557584 87.372495 221.786943 74.1365155 222.016301 98.535408 222.245659 80.9734801 222.475016 89.910356 222.704373 91.7227528 223.16309 70.4319006 223.392447 97.74689 223.621805 94.3899996 223.851162 71.0262778 224.080521 100.293458 224.309879 81.9155949 224.539236 84.0746131 224.768594 63.1484376 224.997953 106.405396 225.22731 91.2194048 225.456667 68.9973286 225.686025 105.250775 225.915383 81.565504 226.144742 83.478173 226.374098 78.3107477 226.603457 108.661731 226.832814 63.740253 227.062172 94.36983 227.291531 101.752451 227.520887 72.65667 227.750246 87.0013593 227.979603 91.3860354 228.208961 70.500197 228.438319 81.8372026 228.667676 110.60742 228.897035 71.2910239 229.126393 79.0907552 229.35575 97.257282 229.814466 73.0896542 230.043824 120 230.273181 66.9289956 230.731897 110.903258 230.961255 88.0367046 231.190612 75.512454 231.419971 85.7748511 231.649328 74.0090051 231.878686 106.27138 232.108043 82.6137182 232.337401 72.2271017 232.56676 97.648154 232.796117 94.7775274 233.025476 81.4579266 233.254833 47.404894 233.48419 116.574929 233.713549 108.327291 233.942906 57.2848975 234.172264 76.2647813 234.401622 112.027552 234.860338 70.8599642 235.089694 86.6164303 235.319053 76.785026 235.548411 91.0283312 235.777769 96.3439947 236.007126 81.7669504 236.236483 80.8095331 236.465842 93.503857 236.6952 65.3114799 236.924557 101.1951 237.383274 68.520281 237.612631 79.9641316 237.841989 96.5409356 238.071346 92.7962941 238.300704 71.2852547 238.530063 109.109183 238.75942 95.6825402 238.988778 59.6570356 239.218135 87.7038809 239.447493 100.27587 239.676852 92.4892573 240.135567 65.7101802 240.364924 102.355835 240.594283 100.381335 240.82364 79.3204623 241.052997 72.8638275 241.282356 88.9659505 241.511713 91.1889561 241.741071 89.202418 241.970429 90.7653355 242.199787 63.6725706 242.429145 91.9957552 242.658503 102.615919 243.117218 80.4779373 243.346576 78.9455356 243.805292 89.770066 244.034649 75.3560891 244.493365 96.1268841 244.952081 83.2952486 245.181438 90.5537261 245.410797 78.5549134 245.640153 99.668458 245.869511 90.0004161 246.09887 74.5762914 246.557586 93.5729526 246.786943 92.9590444 247.0163 82.9374908 247.475015 86.9767467 247.704374 96.0371411 247.933732 80.7354184 248.392448 90.1627869 248.621804 87.1684097 248.851163 85.3989777 249.080521 80.5952803 249.309879 84.140141 249.539236 91.9517053 249.768594 90.3234877 249.997952 81.9391805 250.22731 87.328012 250.456667 89.0804223 250.686025 83.5840536 250.915384 83.1406742 251.144741 87.5248457 251.603456 90.6245454 251.832814 89.6451009 252.062173 76.4438388 252.29153 97.931444 252.520888 94.2350501 252.750245 77.0380597 252.979604 79.5379926 253.208962 90.4191428 253.438318 93.372118 253.667677 82.0893119 253.897034 83.8081032 254.126393 88.8143902 254.35575 87.6203669 254.585107 84.6952058 254.814466 84.3495088 255.043824 88.3261124 255.273181 84.7871057 255.502539 88.1149674 255.731897 82.0972512 255.961255 86.2993646 256.190614 88.4202895 256.649328 84.96477 256.878686 88.2212544 257.108044 84.9754018 257.337402 85.8298544 257.566759 87.6727088 257.796117 84.911919 258.025475 87.535549 258.254832 88.522714 258.484191 86.1861386 258.713548 84.954156 258.942907 87.7142314 259.172265 88.6696572 259.401621 84.4563449 259.63098 87.5568796 259.860337 79.4746572 260.089695 92.2437789 260.548411 84.4563449 260.777769 85.0074402 261.007125 88.6878666 261.236484 86.5560732 261.465842 82.2488205 261.6952 84.17781 261.924558 91.1660939 262.153915 86.6016011 262.383273 84.7155095 262.612631 86.9015738 263.071346 82.6630506 263.300704 89.0891831 263.530062 88.8770647 263.759421 85.458281 263.988777 84.7871057 264.218135 87.1450473 264.676851 83.7809543 264.90621 88.8859864 265.135566 88.0563518 265.594283 85.3989777 265.823639 87.0859494 266.282355 83.6730912 266.511714 88.0759409 266.741072 89.2629359 266.970428 86.0734708 267.199787 84.828405 267.429144 85.6562579 267.658503 85.0938923 267.88786 85.6562579 268.117218 86.7438335 268.346576 87.316822 269.034649 85.1267434 269.264007 85.543224 269.493365 86.8631724 269.722724 86.1861565 270.181438 87.1800506 270.410796 89.2973989 270.640154 86.601619 271.098869 86.0908139 271.328228 84.7768445 271.557585 86.8372113 272.016301 85.8438887 272.475017 86.4054595 272.933732 86.007608 273.621805 86.5714784 273.851163 86.0565742 274.080521 86.9142954 274.309879 86.4415344 275.22731 85.5309712 275.686025 86.8109823"></polyline>
            <path d="M138.666667,55.5 L138.666667,26" id="Line" stroke="#888888" stroke-width="2" fill="#888888" fill-rule="nonzero" stroke-linecap="square"></path>
            <polygon id="Line-decoration-1" stroke="#888888" stroke-width="2" fill="#888888" fill-rule="nonzero" stroke-linecap="square" points="138.666667 24 135.666667 34.8 141.666667 34.8"></polygon>
            <g id="text" transform="translate(1.000000, 0.000000)">
                <rect id="Rectangle-path" stroke="#000000" stroke-width="0.2" fill-opacity="0.2" fill="#D8D8D8" x="12.1" y="2.1" width="10.8" height="13.8"></rect>
                <rect id="Rectangle-path" stroke="#000000" stroke-width="0.2" fill-opacity="0.2" fill="#D8D8D8" x="24.1" y="2.1" width="10.8" height="13.8"></rect>
                <rect id="Rectangle-path" stroke="#000000" stroke-width="0.2" fill-opacity="0.2" fill="#D8D8D8" x="36.1" y="2.1" width="10.8" height="13.8"></rect>
                <rect id="Rectangle-path" stroke="#000000" stroke-width="0.2" fill-opacity="0.2" fill="#D8D8D8" x="0.1" y="2.1" width="10.8" height="13.8"></rect>
                <rect id="Rectangle-path" stroke="#000000" stroke-width="0.2" fill-opacity="0.2" fill="#D8D8D8" x="48.1" y="2.1" width="10.8" height="13.8"></rect>
                <rect id="Rectangle-path" stroke="#000000" stroke-width="0.2" fill-opacity="0.2" fill="#D8D8D8" x="60.1" y="2.1" width="10.8" height="13.8"></rect>
                <rect id="Rectangle-path" stroke="#000000" stroke-width="0.2" fill-opacity="0.2" fill="#D8D8D8" x="72.1" y="2.1" width="10.8" height="13.8"></rect>
                <rect id="Rectangle-path" stroke="#000000" stroke-width="0.2" fill-opacity="0.2" fill="#D8D8D8" x="84.1" y="2.1" width="10.8" height="13.8"></rect>
                <rect id="Rectangle-path" stroke="#000000" stroke-width="0.2" fill-opacity="0.2" fill="#D8D8D8" x="96.1" y="2.1" width="10.8" height="13.8"></rect>
                <rect id="Rectangle-path" stroke="#000000" stroke-width="0.2" fill-opacity="0.2" fill="#D8D8D8" x="108.1" y="2.1" width="10.8" height="13.8"></rect>
                <rect id="Rectangle-path" stroke="#000000" stroke-width="0.2" fill-opacity="0.2" fill="#D8D8D8" x="120.1" y="2.1" width="10.8" height="13.8"></rect>
                <rect id="Rectangle-path" stroke="#000000" stroke-width="0.2" fill-opacity="0.2" fill="#D8D8D8" x="132.1" y="2.1" width="10.8" height="13.8"></rect>
                <rect id="Rectangle-path" stroke="#000000" stroke-width="0.2" fill-opacity="0.2" fill="#D8D8D8" x="144.1" y="2.1" width="10.8" height="13.8"></rect>
                <rect id="Rectangle-path" stroke="#000000" stroke-width="0.2" fill-opacity="0.2" fill="#D8D8D8" x="156.1" y="2.1" width="10.8" height="13.8"></rect>
                <rect id="Rectangle-path" stroke="#000000" stroke-width="0.2" fill-opacity="0.2" fill="#D8D8D8" x="168.1" y="2.1" width="10.8" height="13.8"></rect>
                <rect id="Rectangle-path" stroke="#000000" stroke-width="0.2" fill-opacity="0.2" fill="#D8D8D8" x="180.1" y="2.1" width="10.8" height="13.8"></rect>
                <rect id="Rectangle-path" stroke="#000000" stroke-width="0.2" fill-opacity="0.2" fill="#D8D8D8" x="192.1" y="2.1" width="10.8" height="13.8"></rect>
                <rect id="Rectangle-path" stroke="#000000" stroke-width="0.2" fill-opacity="0.2" fill="#D8D8D8" x="204.1" y="2.1" width="10.8" height="13.8"></rect>
                <rect id="Rectangle-path" stroke="#000000" stroke-width="0.2" fill-opacity="0.2" fill="#D8D8D8" x="216.1" y="2.1" width="10.8" height="13.8"></rect>
                <rect id="Rectangle-path" stroke="#000000" stroke-width="0.2" fill-opacity="0.2" fill="#D8D8D8" x="228.1" y="2.1" width="10.8" height="13.8"></rect>
                <rect id="Rectangle-path" stroke="#000000" stroke-width="0.2" fill-opacity="0.2" fill="#D8D8D8" x="240.1" y="2.1" width="10.8" height="13.8"></rect>
                <rect id="Rectangle-path" stroke="#000000" stroke-width="0.2" fill-opacity="0.2" fill="#D8D8D8" x="252.1" y="2.1" width="10.8" height="13.8"></rect>
                <rect id="Rectangle-path" stroke="#000000" stroke-width="0.2" fill-opacity="0.2" fill="#D8D8D8" x="264.1" y="2.1" width="10.8" height="13.8"></rect>
                <text id="j" fill="#000000" >
                    <tspan x="4" y="12">j</tspan>
                </text>
                <text id="u" fill="#000000" >
                    <tspan x="14" y="12">u</tspan>
                </text>
                <text id="m" fill="#000000" >
                    <tspan x="24.7999992" y="12">m</tspan>
                </text>
                <text id="d" fill="#000000" >
                    <tspan x="242" y="12">d</tspan>
                </text>
                <text id="o" fill="#000000" >
                    <tspan x="254" y="12">o</tspan>
                </text>
                <text id="g" fill="#000000" >
                    <tspan x="266" y="11.8">g</tspan>
                </text>
                <text id="p" fill="#000000" >
                    <tspan x="39" y="11.7">p</tspan>
                </text>
                <text id="s" fill="#000000" >
                    <tspan x="50" y="11.7">s</tspan>
                </text>
                <text id="o" fill="#000000" >
                    <tspan x="74" y="12">o</tspan>
                </text>
                <text id="v" fill="#000000" >
                    <tspan x="87" y="12">v</tspan>
                </text>
                <text id="e" fill="#000000" >
                    <tspan x="98" y="12">e</tspan>
                </text>
                <text id="r" fill="#000000" >
                    <tspan x="111" y="12">r</tspan>
                </text>
                <text id="t" fill="#000000" >
                    <tspan x="136" y="12">t</tspan>
                </text>
                <text id="h" fill="#000000" >
                    <tspan x="146" y="12">h</tspan>
                </text>
                <text id="e" fill="#000000" >
                    <tspan x="158" y="12">e</tspan>
                </text>
                <text id="a" fill="#000000" >
                    <tspan x="194" y="12">a</tspan>
                </text>
                <text id="l" fill="#000000" >
                    <tspan x="184" y="12">l</tspan>
                </text>
                <text id="z"  fill="#000000">
                    <tspan x="206" y="12">z</tspan>
                </text>
                <text id="y" fill="#000000" >
                    <tspan x="218" y="12">y</tspan>
                </text>
            </g>
        </g>
    </g>
</svg>
