<?xml version="1.0" encoding="UTF-8"?>
<svg width="212px" height="130px" viewBox="0 0 212 130" version="1.1" xmlns="http://www.w3.org/2000/svg" xmlns:xlink="http://www.w3.org/1999/xlink">
    <!-- Generator: Sketch 46.2 (44496) - http://www.bohemiancoding.com/sketch -->
    <title>all_alignments</title>
    <desc>Created with Sketch.</desc>
    <defs></defs>
    <g id="Page-1" stroke="none" stroke-width="1" fill="none" fill-rule="evenodd">
        <g id="all_alignments" transform="translate(1.000000, 0.000000)">
            <circle id="Oval" fill="#D8D8D8" fill-rule="nonzero" cx="15" cy="15" r="15"></circle>
            <circle id="Oval" fill="#D8D8D8" fill-rule="nonzero" cx="75" cy="15" r="15"></circle>
            <circle id="Oval" fill="#D8D8D8" fill-rule="nonzero" cx="135" cy="15" r="15"></circle>
            <circle id="Oval" fill="#D8D8D8" fill-rule="nonzero" cx="15" cy="65" r="15"></circle>
            <circle id="Oval" fill="#D8D8D8" fill-rule="nonzero" cx="75" cy="65" r="15"></circle>
            <circle id="Oval" fill="#D8D8D8" fill-rule="nonzero" cx="135" cy="65" r="15"></circle>
            <circle id="Oval" fill="#D8D8D8" fill-rule="nonzero" cx="15" cy="115" r="15"></circle>
            <circle id="Oval" fill="#D8D8D8" fill-rule="nonzero" cx="75" cy="115" r="15"></circle>
            <circle id="Oval" fill="#D8D8D8" fill-rule="nonzero" cx="135" cy="115" r="15"></circle>
            <circle id="Oval" fill="#D8D8D8" fill-rule="nonzero" cx="195" cy="15" r="15"></circle>
            <circle id="Oval" fill="#D8D8D8" fill-rule="nonzero" cx="195" cy="65" r="15"></circle>
            <circle id="Oval" fill="#D8D8D8" fill-rule="nonzero" cx="195" cy="115" r="15"></circle>
            <path d="M0,5.16015625 L71.3567449,5.16015625 L71.3567449,5.16015625 C73.7099276,5.16015625 75.9877324,5.99001864 77.7894256,7.50374592 L132.210574,53.2267228 L132.210574,53.2267228 C134.012268,54.7404501 136.290072,55.5703125 138.643255,55.5703125 L210,55.5703125" id="Path" stroke="#000000" stroke-width="1.3" stroke-linecap="round"></path>
            <path d="M0,72.1601562 L71.3567449,72.1601562 L71.3567449,72.1601563 C73.7099276,72.1601563 75.9877324,72.9900186 77.7894256,74.5037459 L132.210574,120.226723 L132.210574,120.226723 C134.012268,121.74045 136.290072,122.570312 138.643255,122.570312 L210,122.570312" id="Path" stroke="#000000" stroke-width="1.3" stroke-linecap="round"></path>
            <path d="M0,20.65 L210,20.65" id="Path-2" stroke="#000000" stroke-width="1.3" stroke-linecap="round"></path>
            <path d="M0,127.65 L210,127.65" id="Path-2" stroke="#000000" stroke-width="1.3" fill="#D8D8D8" stroke-linecap="round"></path>
            <path d="M0,69.65 L210,69.65" id="Path-2" stroke="#000000" stroke-width="1.3" stroke-linecap="round"></path>
            <path d="M0,2.64648438 L131.359556,2.64648438 L131.359556,2.64648437 C133.711032,2.64648438 135.987298,3.47514608 137.788435,4.98688216 L192.211565,50.6654616 L192.211565,50.6654616 C194.012702,52.1771977 196.288968,53.0058594 198.640444,53.0058594 L210,53.0058594" id="Path-3" stroke="#000000" stroke-width="1.3" stroke-linecap="round"></path>
            <path d="M0,67.3000031 L131.359556,67.3000031 L131.359556,67.3000031 C133.711032,67.3000031 135.987298,68.1286648 137.788435,69.6404008 L192.211565,115.31898 L192.211565,115.31898 C194.012702,116.830716 196.288968,117.659378 198.640444,117.659378 L210,117.659378" id="Path-3" stroke="#000000" stroke-width="1.3" stroke-linecap="round"></path>
            <path d="M0,10.6972656 L11.350589,10.6972656 L11.350589,10.6972656 C13.707507,10.6972656 15.9886816,11.52976 17.7915861,13.0478502 L72.2084139,58.8681655 L72.2084139,58.8681655 C74.0113184,60.3862557 76.292493,61.21875 78.649411,61.21875 L210,61.21875" id="Path-4" stroke="#000000" stroke-width="1.3" stroke-linecap="round"></path>
            <path d="M0,74.6972656 L11.350589,74.6972656 L11.350589,74.6972656 C13.707507,74.6972656 15.9886816,75.52976 17.7915861,77.0478502 L72.2084139,122.868165 L72.2084139,122.868165 C74.0113184,124.386256 76.292493,125.21875 78.649411,125.21875 L210,125.21875" id="Path-4" stroke="#000000" stroke-width="1.3" stroke-linecap="round"></path>
            <path d="M0,8.68945312 L71.3398105,8.68945312 L71.3398105,8.68945312 C73.7032661,8.68945313 75.9903355,9.52656388 77.7953427,11.0523002 L192.204657,107.7602 L192.204657,107.7602 C194.009664,109.285936 196.296734,110.123047 198.66019,110.123047 L210,110.123047" id="Path-5" stroke="#000000" stroke-width="1.3" stroke-linecap="round"></path>
            <path d="M0,13.7529297 L11.3400258,13.7529297 L11.3400258,13.7529297 C13.7033508,13.7529297 15.9903026,14.5899481 17.795268,16.1155317 L72.204732,62.1032183 L72.204732,62.1032183 C74.0096974,63.6288019 76.2966492,64.4658203 78.6599742,64.4658203 L131.348215,64.4658203 L131.348215,64.4658203 C133.706573,64.4658203 135.989047,65.2993304 137.792416,66.8191036 L192.207584,112.67699 L192.207584,112.67699 C194.010953,114.196763 196.293427,115.030273 198.651785,115.030273 L210,115.030273" id="Path-6" stroke="#000000" stroke-width="1.3" stroke-linecap="round"></path>
            <path d="M0,16.7441406 L11.3258925,16.7441406 L11.3258925,16.7441406 C13.6977848,16.7441406 15.992456,17.5872275 17.800144,19.1228502 L132.2711,116.365405 L132.2711,116.365405 C134.035518,117.864271 136.265337,118.704501 138.580139,118.74275 L210,119.922852" id="Path-7" stroke="#000000" stroke-width="1.3" stroke-linecap="round"></path>
        </g>
    </g>
</svg>