<?xml version="1.0" encoding="UTF-8"?>
<svg width="335px" height="140px" viewBox="0 0 335 140" version="1.1" xmlns="http://www.w3.org/2000/svg" xmlns:xlink="http://www.w3.org/1999/xlink">
    <title>hmm</title>
    <defs></defs>
    <g id="Page-1" stroke="none" stroke-width="1" fill="none" fill-rule="evenodd">
        <g id="hmm" transform="translate(1.000000, 1.000000)">
            <g id="x3" transform="translate(282.000000, 87.000000)">
                <circle id="Oval" stroke="#000000" stroke-width="0.8" fill="#D3D3D3" cx="25.5" cy="25.5" r="25.5"></circle>
                <text id="xT" font-family="STIXGeneral-Italic, STIXGeneral" font-size="20" font-style="italic" font-weight="normal" fill="#000000">
                    <tspan x="17" y="28">x</tspan>
                    <tspan x="25.88" y="34" font-size="12">T</tspan>
                </text>
            </g>
            <g id="x2" transform="translate(111.000000, 87.000000)">
                <circle id="Oval" stroke="#000000" stroke-width="0.8" fill="#D3D3D3" cx="25.5" cy="25.5" r="25.5"></circle>
                <text font-family="STIXGeneral-Italic, STIXGeneral" font-size="20" font-style="italic" font-weight="normal" fill="#000000">
                    <tspan x="17" y="28">x</tspan>
                    <tspan x="25.88" y="34" font-size="12">2</tspan>
                </text>
            </g>
            <g id="x1" transform="translate(0.000000, 87.000000)">
                <circle id="Oval" stroke="#000000" stroke-width="0.8" fill="#D3D3D3" cx="25.5" cy="25.5" r="25.5"></circle>
                <text font-family="STIXGeneral-Italic, STIXGeneral" font-size="20" font-style="italic" font-weight="normal" fill="#000000">
                    <tspan x="18" y="28">x</tspan>
                    <tspan x="26.88" y="34" font-size="12">1</tspan>
                </text>
            </g>
            <g id="a3" transform="translate(282.000000, 0.000000)">
                <circle id="Oval" stroke="#000000" stroke-width="0.8" fill="#D3D3D3" cx="25.5" cy="25.5" r="25.5"></circle>
                <text id="aT" font-family="STIXGeneral-Italic, STIXGeneral" font-size="20" font-style="italic" font-weight="normal" fill="#000000">
                    <tspan x="17" y="28">a</tspan>
                    <tspan x="27.02" y="34" font-size="12">T</tspan>
                </text>
            </g>
            <g id="a2" transform="translate(111.000000, 0.000000)">
                <circle id="Oval" stroke="#000000" stroke-width="0.8" fill="#D3D3D3" cx="25.5" cy="25.5" r="25.5"></circle>
                <text font-family="STIXGeneral-Italic, STIXGeneral" font-size="20" font-style="italic" font-weight="normal" fill="#000000">
                    <tspan x="17" y="28">a</tspan>
                    <tspan x="27.02" y="34" font-size="12">2</tspan>
                </text>
            </g>
            <g id="a1">
                <circle id="Oval" stroke="#000000" stroke-width="0.8" fill="#D3D3D3" cx="25.5" cy="25.5" r="25.5"></circle>
                <text font-family="STIXGeneral-Italic, STIXGeneral" font-size="20" font-style="italic" font-weight="normal" fill="#000000">
                    <tspan x="17" y="28">a</tspan>
                    <tspan x="27.02" y="34" font-size="12">1</tspan>
                </text>
            </g>
            <path d="M25.5,51.5 L25.5,85.5" id="Line" stroke="#000000" fill="#000000" stroke-linecap="square"></path>
            <path id="Line-decoration-1" d="M25.5,85.5 L28.5,74.7 L22.5,74.7 L25.5,85.5 Z" stroke="#000000" fill="#000000" stroke-linecap="square"></path>
            <path d="M136.5,51.5 L136.5,85.5" id="Line" stroke="#000000" fill="#000000" stroke-linecap="square"></path>
            <path id="Line-decoration-1" d="M136.5,85.5 L139.5,74.7 L133.5,74.7 L136.5,85.5 Z" stroke="#000000" fill="#000000" stroke-linecap="square"></path>
            <path d="M307.5,51.5 L307.5,85.5" id="Line" stroke="#000000" fill="#000000" stroke-linecap="square"></path>
            <path id="Line-decoration-1" d="M307.5,85.5 L310.5,74.7 L304.5,74.7 L307.5,85.5 Z" stroke="#000000" fill="#000000" stroke-linecap="square"></path>
            <path d="M162.5,112.5 L192.5,112.5" id="Line" stroke="#000000" fill="#000000" stroke-linecap="square"></path>
            <path id="Line-decoration-1" d="M192.5,112.5 L181.7,109.5 L181.7,115.5 L192.5,112.5 Z" stroke="#000000" fill="#000000" stroke-linecap="square"></path>
            <path d="M256.5,112.5 L280.5,112.5" id="Line" stroke="#000000" fill="#000000" stroke-linecap="square"></path>
            <path id="Line-decoration-1" d="M280.5,112.5 L269.7,109.5 L269.7,115.5 L280.5,112.5 Z" stroke="#000000" fill="#000000" stroke-linecap="square"></path>
            <path d="M50.5,112.5 L108.5,112.5" id="Line" stroke="#000000" fill="#000000" stroke-linecap="square"></path>
            <path id="Line-decoration-1" d="M108.5,112.5 L97.7,109.5 L97.7,115.5 L108.5,112.5 Z" stroke="#000000" fill="#000000" stroke-linecap="square"></path>
            <g id="elipsis" transform="translate(205.000000, 110.000000)" fill="#000000">
                <circle id="Oval-2" cx="2.5" cy="2.5" r="2.5"></circle>
                <circle id="Oval-2" cx="19.5" cy="2.5" r="2.5"></circle>
                <circle id="Oval-2" cx="36.5" cy="2.5" r="2.5"></circle>
            </g>
            <g id="elipsis" transform="translate(205.000000, 22.000000)" fill="#000000">
                <circle id="Oval-2" cx="2.5" cy="2.5" r="2.5"></circle>
                <circle id="Oval-2" cx="19.5" cy="2.5" r="2.5"></circle>
                <circle id="Oval-2" cx="36.5" cy="2.5" r="2.5"></circle>
            </g>
        </g>
    </g>
</svg>
