<?xml version="1.0" encoding="UTF-8"?>
<svg width="210px" height="130px" viewBox="0 0 210 130" version="1.1" xmlns="http://www.w3.org/2000/svg" xmlns:xlink="http://www.w3.org/1999/xlink">
    <!-- Generator: Sketch 46.2 (44496) - http://www.bohemiancoding.com/sketch -->
    <title>merged_alignments</title>
    <desc>Created with Sketch.</desc>
    <defs></defs>
    <g id="Page-1" stroke="none" stroke-width="1" fill="none" fill-rule="evenodd">
        <g id="merged_alignments">
            <g id="lines" transform="translate(33.000000, 12.000000)" stroke="#000000" stroke-width="2" stroke-linecap="round">
                <path d="M0,1.7734375 L30.1074219,1.7734375" id="Path"></path>
                <path d="M0,52 L30.1074219,52" id="Path"></path>
                <path d="M0,102 L30.1074219,102" id="Path"></path>
                <path d="M60,2 L90.1074219,2" id="Path"></path>
                <path d="M60,52 L90.1074219,52" id="Path"></path>
                <path d="M60,102 L90.1074219,102" id="Path"></path>
                <path d="M120,2 L150.107422,2" id="Path"></path>
                <path d="M120,52 L150.107422,52" id="Path"></path>
                <path d="M120,102 L150.107422,102" id="Path"></path>
                <path d="M0.299999237,7.84179688 C17.358593,7.84179688 0.299999237,52.510639 27.3410149,51.8341908" id="Path-2"></path>
                <path d="M0.299999237,58 C17.358593,58 0.299999237,102.668842 27.3410149,101.992394" id="Path-2"></path>
                <path d="M60.2999992,7.84179688 C77.358593,7.84179688 60.2999992,52.510639 87.3410149,51.8341908" id="Path-2"></path>
                <path d="M60.2999992,58 C77.358593,58 60.2999992,102.668842 87.3410149,101.992394" id="Path-2"></path>
                <path d="M120.299999,7.84179688 C137.358593,7.84179688 120.299999,52.510639 147.341015,51.8341908" id="Path-2"></path>
                <path d="M120.299999,58 C137.358593,58 120.299999,102.668842 147.341015,101.992394" id="Path-2"></path>
            </g>
            <g id="circles" fill-rule="nonzero" fill="#D8D8D8">
                <circle id="Oval" cx="15" cy="15" r="15"></circle>
                <circle id="Oval" cx="75" cy="15" r="15"></circle>
                <circle id="Oval" cx="135" cy="15" r="15"></circle>
                <circle id="Oval" cx="15" cy="65" r="15"></circle>
                <circle id="Oval" cx="75" cy="65" r="15"></circle>
                <circle id="Oval" cx="135" cy="65" r="15"></circle>
                <circle id="Oval" cx="15" cy="115" r="15"></circle>
                <circle id="Oval" cx="75" cy="115" r="15"></circle>
                <circle id="Oval" cx="135" cy="115" r="15"></circle>
                <circle id="Oval" cx="195" cy="15" r="15"></circle>
                <circle id="Oval" cx="195" cy="65" r="15"></circle>
                <circle id="Oval" cx="195" cy="115" r="15"></circle>
            </g>
        </g>
    </g>
</svg>