<?xml version="1.0" encoding="UTF-8"?>
<svg width="260px" height="121px" viewBox="0 0 223 121" version="1.1" xmlns="http://www.w3.org/2000/svg" xmlns:xlink="http://www.w3.org/1999/xlink">
    <title>speech_recognition</title>
    <defs>
    <style
       type="text/css"
       id="style2">
      svg {
        font: 300 14px -apple-system, BlinkMacSystemFont, &quot;Roboto&quot;, Helvetica, sans-serif;
      }
    </style>

</defs>
    <g id="Page-1" stroke="none" stroke-width="1" fill="none" fill-rule="evenodd">
        <g id="speech_recognition" transform="translate(0.000000, -2.000000)">
            <polyline id="path9" stroke="#000000" stroke-width="0.2" fill="#D8D8D8" stroke-linecap="square" stroke-linejoin="round" points="0.915383066 89.1456743 1.09974568 89.3667768 1.4684709 89.4236466 1.65283351 89.1456743 1.83719612 89.1267862 2.20592134 89.2328632 2.39028395 89.3239281 2.57464656 89.2993244 2.75900917 89.165393 2.94337178 89.2082596 3.12773439 89.165393 3.49645961 89.2661028 3.86518483 89.3461071 4.04954744 89.2082596 4.23391006 89.1861118 4.41827267 89.1085366 4.60263528 89.2993378 4.78699789 89.1457234 4.9713605 89.3239593 5.34008572 89.2993556 5.70881094 89.1457413 5.89317355 89.186152 6.07753616 89.3461607 6.44626138 89.299378 6.99934921 89.2329347 7.18371182 89.2661563 7.36807443 89.4237359 7.55243704 89.3461607 7.73679966 88.6307255 7.92116227 90.4492977 8.10552488 89.5560866 8.28988749 89.6311166 8.4742501 88.9917965 8.65861271 89.6456421 8.84297532 88.9608611 9.02733793 89.5714471 9.21170054 89.299378 9.39606315 85.8037603 9.58042576 88.1708826 9.94915098 86.9910901 10.1335136 88.1157677 10.3178762 89.863168 10.5022388 89.1085768 10.6866014 87.0466917 10.870964 86.6552345 11.0553266 87.564793 11.2396893 86.0556375 11.4240519 94.0973465 11.6084145 87.564793 11.7927771 88.7346101 11.9771397 92.7866545 12.1615023 87.4270661 12.3458649 90.85733 12.5302275 92.0453431 12.7145901 90.5033901 12.8989527 90.6518471 13.0833154 87.1967205 13.267678 87.5054362 13.4520406 88.6307255 13.6364032 92.1503038 13.8207658 88.8298678 14.0051284 89.3239995 14.189491 88.3989911 14.3738536 85.663064 14.5582162 86.5486574 14.7425789 88.8159629 14.9269415 92.3916251 15.2956667 90.2376214 15.4800293 87.7461055 15.6643919 89.1654465 15.8487545 87.4563583 16.2174797 90.3168354 16.4018423 90.9476224 16.586205 90.1215466 16.7705676 87.4173318 17.1392928 92.9759196 17.3236554 91.4390124 17.508018 75.7217022 17.6923806 104.125803 17.8767432 78.225194 18.0611058 100.857723 18.2454685 82.58031 18.4298311 92.1241552 18.6141937 77.9954735 18.7985563 97.6577553 18.9829189 84.0334264 19.1672815 88.7081935 19.3516441 97.1471467 19.5360067 55.7207548 19.7203693 114.760283 19.9047319 83.412204 20.0890946 76.9484113 20.2734572 102.239765 20.4578198 87.9860738 20.6421824 96.0154363 20.826545 74.9697813 21.1952702 96.5798649 21.3796328 91.7060537 21.5639954 96.9365063 21.7483581 72.691058 21.9327207 112.863863 22.1170833 82.7076284 22.3014459 75.8875693 22.4858085 96.9228649 22.6701711 92.3916251 22.8545337 99.6106028 23.0388963 60.4757906 23.4076215 111.520807 23.5919842 90.9176604 23.7763468 93.1789467 23.9607094 87.9541694 24.145072 53.7501114 24.3294346 105.179979 24.5137972 102.269651 24.6981598 82.1532333 24.8825224 92.5020781 25.066885 90.6098512 25.4356103 98.5917612 25.6199729 94.7672671 25.8043355 76.966585 25.9886981 91.2020492 26.1730607 92.4427212 26.3574233 97.9366028 26.5417859 74.2391463 26.9105111 96.4900325 27.0948738 88.5432195 27.2792364 97.7708964 27.463599 92.7866545 27.6479616 78.2999516 27.8323242 83.7724579 28.2010494 97.956433 28.385412 83.4925834 28.5697746 94.4613423 28.7541373 91.8144036 28.9384999 69.7776523 29.1228625 102.674402 29.3072251 96.875082 29.4915877 83.0143258 29.8603129 94.9737548 30.0446755 81.3851659 30.2290381 79.2010395 30.4134007 97.1742241 30.5977634 94.4913846 30.782126 85.9039432 30.9664886 94.8116743 31.1508512 94.2725862 31.3352138 71.2334005 31.5195764 97.7642521 31.703939 97.3496648 31.8883016 85.6219433 32.0726642 87.9119324 32.2570269 94.1889695 32.4413895 80.0510938 32.6257521 85.3533659 32.8101147 96.9365063 33.1788399 86.4781864 33.3632025 94.0743727 33.5475651 92.1415965 33.7319277 74.0607586 33.9162903 95.6967452 34.100653 96.2746678 34.2850156 87.8180679 34.4693782 91.68788 34.6537408 93.0411841 34.8381034 81.1087119 35.022466 82.9999788 35.2068286 98.23946 35.5755538 86.1236302 35.7599165 91.6056698 35.9442791 90.4492977 36.1286417 79.9535365 36.3130043 92.4597116 36.4973669 95.9872605 36.6817295 89.5405162 36.8660921 87.2823109 37.0504547 93.3952937 37.4191799 81.6845715 37.6035426 91.4390124 37.7879052 95.1201086 38.1566304 87.234653 38.340993 90.9376514 38.5253556 84.0034376 38.7097182 86.2866217 38.8940808 92.951374 39.0784434 91.4949087 39.2628061 88.1377324 39.4471687 90.5887349 39.6315313 90.1684231 39.8158939 85.3372418 40.0002565 89.8241192 40.1846191 91.2976597 40.3689817 88.7479389 40.7377069 91.5227274 40.9220695 87.4465794 41.1064322 87.1120098 41.2907948 90.3835555 41.4751574 89.5560866 41.65952 89.7574481 41.8438826 89.0908095 42.0282452 90.0257754 42.2126078 86.8353414 42.581333 91.5227274 42.9500583 88.6434649 43.1344209 89.8372069 43.3187835 87.4955947 43.5031461 88.3522665 43.6875087 90.1450607 43.8718713 90.5462389 44.0562339 88.7081935 44.2405965 89.7438469 44.4249591 89.4588285 44.6093218 88.53094 44.7936844 88.4463498 44.978047 89.1654465 45.1624096 90.8370934 45.3467722 88.9762261 45.5311348 89.5405162 45.89986 87.8804656 46.0842226 88.7346101 46.2685853 90.5462389 46.4529479 90.2261769 46.6373105 88.7884658 46.8216731 89.7163498 47.0060357 88.7613571 47.1903983 88.5928778 47.5591235 89.9519332 47.7434861 89.9142463 47.9278487 88.8021429 48.1122114 89.6164258 48.296574 88.6820717 48.4809366 88.5432016 48.6652992 89.4588106 48.8496618 89.9015693 49.218387 89.1861342 49.4027496 89.2661385 49.5871122 88.9306803 49.7714749 88.8021429 49.9558375 89.1457457 50.1402001 89.6600159 50.5089253 89.1268398 50.6932879 87.1872496 50.8776505 91.3071439 51.0620131 85.7871182 51.2463757 87.9119145 51.4307383 91.2404149 51.615101 89.9890753 51.7994636 90.3280075 51.9838262 88.375535 52.1681888 90.4601484 52.3525514 86.4430983 52.536914 91.0857154 52.7212766 90.4165271 52.9056392 92.9349686 53.0900018 82.8783358 53.2743645 95.5967811 53.4587271 84.5423962 53.6430897 93.671596 53.8274523 86.4518547 54.0118149 90.0378897 54.1961775 87.2346351 54.3805401 90.9476045 54.5649027 90.3168175 54.7492653 90.6203624 54.9336279 85.9374863 55.1179906 87.2536617 55.3023532 93.4905202 55.4867158 92.3059767 55.855441 80.9078906 56.0398036 100.132464 56.2241662 81.5480993 56.4085288 96.6349932 56.5928914 87.417314 56.7772541 86.6730867 56.9616167 85.0972467 57.1459793 93.0004117 57.3303419 87.7973981 57.5147045 90.0740004 57.6990671 94.6781581 58.0677923 80.1097362 58.2521549 98.1080827 58.4365175 83.0789695 58.6208802 95.6896008 59.173968 84.7903306 59.3583306 92.193742 59.5426932 89.6310987 59.7270558 91.1634603 59.9114184 95.7465554 60.2801437 73.7855504 60.4645063 104.900979 60.6488689 78.7134271 60.8332315 100.64815 61.0175941 86.4869517 61.2019567 91.5504389 61.3863193 73.15379 61.5706819 107.606587 61.7550445 75.3033507 61.9394071 99.5536036 62.1237698 90.1567419 62.3081324 88.0612869 62.492495 74.5337696 62.6768576 105.908685 62.8612202 74.1009773 63.0455828 102.299502 63.2299454 81.6777173 63.414308 95.5179691 63.5986706 71.4594907 63.7830333 110.0084 63.9673959 70.4883498 64.1517585 104.775318 64.3361211 79.9730095 64.5204837 95.0543441 64.7048463 79.6881518 64.8892089 103.005426 65.0735715 74.342955 65.2579341 105.587694 65.4422967 78.4060599 65.6266594 96.8477233 65.811022 66.693386 65.9953846 114.649115 66.1797472 67.2992813 66.3641098 108.52208 66.5484724 77.7484233 66.732835 97.5308299 66.9171976 63.2080072 67.1015602 117.255255 67.2859229 66.4646291 67.4702855 106.490407 67.6546481 77.9397558 67.8390107 97.9365849 68.0233733 82.6368002 68.2077359 92.7451587 68.3920985 85.288941 68.5764611 90.7554548 68.7608237 90.8674082 68.9451863 92.711888 69.129549 82.8640648 69.3139116 93.6872512 69.4982742 87.263195 69.6826368 84.9864409 69.8669994 94.8412121 70.051362 87.1683705 70.2357246 85.1608948 70.6044498 92.2197344 70.7888125 83.3393531 70.9731751 99.5345949 71.1575377 82.9784517 71.3419003 95.9166823 71.5262629 74.6613201 71.7106255 104.379529 71.8949881 78.9596691 72.0793507 102.715875 72.2637133 81.0952714 72.4480759 94.0360026 72.6324386 76.2447198 72.8168012 94.9222925 73.0011638 92.3574256 73.1855264 92.8856943 73.369889 87.7358756 73.5542516 88.375535 73.7386142 94.7301696 73.9229768 79.1055809 74.1073394 98.7795706 74.2917021 86.6999453 74.4760647 89.7438291 74.6604273 90.9873454 74.8447899 88.039675 75.0291525 92.9840777 75.2135151 80.3059493 75.3978777 98.0685829 75.5822403 87.61463 75.7666029 91.8502463 75.9509655 87.0281028 76.1353282 90.4274715 76.3196908 84.8059412 76.5040534 88.0829971 76.688416 93.1223538 76.8727786 93.3234832 77.0571412 85.7871182 77.2415038 91.2976418 77.4258664 86.098071 77.610229 90.28306 77.7945917 87.0466739 77.9789543 91.2786108 78.1633169 90.9376335 78.3476795 91.0563473 78.5320421 87.1778056 78.7164047 89.4054372 78.9007673 87.7053465 79.0851299 89.0075678 79.2694925 89.7301341 79.4538551 90.9675018 79.6382178 90.6727044 79.8225804 88.039675 80.006943 89.2661385 80.1913056 88.1048055 80.3756682 90.2943438 80.5600308 87.7768221 80.7443934 90.9575621 80.928756 90.7861893 81.1131186 88.3061179 81.2974813 87.7563131 81.4818439 89.3239816 81.6662065 89.1654287 81.8505691 89.8502053 82.2192943 91.6331313 82.4036569 86.4693898 82.5880195 90.1800283 82.7723821 87.5747149 82.9567447 88.5309221 83.1411074 87.8387733 83.32547 93.9898807 83.5098326 88.7884479 83.6941952 87.9224437 83.8785578 87.6648688 84.0629204 82.828423 84.247283 97.0793371 84.4316456 87.81805 84.6160082 93.4667605 84.8003709 85.6301415 84.9847335 86.5840491 85.1690961 83.0645869 85.3534587 99.8440251 85.5378213 80.1358358 85.7221839 100.057407 85.9065465 83.3539009 86.0909091 92.7949197 86.2752717 76.0003934 86.4596343 105.796236 86.643997 75.1743623 86.8283596 101.377521 87.0127222 83.4925656 87.1970848 93.3394644 87.3814474 85.2087938 87.56581 86.4693898 87.7501726 95.6253768 87.9345352 85.2408053 88.3032605 94.4913668 88.4876231 88.0721286 88.6719857 89.6164258 88.8563483 93.2754413 89.0407109 94.2041826 89.2250735 84.4732514 89.4094361 95.0616582 89.5937987 80.9680022 89.7781613 99.210032 89.9625239 82.2018914 90.1468866 80.6751293 90.3312492 99.4139834 90.5156118 87.0652896 90.6999744 88.9917786 90.884337 92.2456731 91.0686996 91.9836374 91.2530622 87.7768221 91.4374248 96.6143279 91.6217874 69.1965464 91.8061501 108.754641 91.9905127 76.5622723 92.1748753 102.08407 92.3592379 75.2974833 92.5436005 101.571765 92.7279631 85.2728794 92.9123257 91.787411 93.0966883 75.90535 93.2810509 105.174281 93.4654135 78.0574247 93.6497762 99.6169123 93.8341388 82.4395333 94.0185014 97.1539027 94.3872266 73.7112348 94.5715892 103.01721 94.7559518 82.2367116 94.9403144 95.2365139 95.124677 88.0181568 95.3090397 84.4502597 95.4934023 95.1929239 95.6777649 85.0655165 95.8621275 90.724564 96.0464901 79.450242 96.2308527 103.847733 96.4152153 77.7484233 96.5995779 99.0820349 96.7839405 82.6863469 96.9683031 94.973737 97.3370284 74.7310142 97.521391 108.408247 97.7057536 79.9730095 97.8901162 98.5462645 98.0744788 82.5873473 98.2588414 97.160672 98.443204 84.4962699 98.6275666 88.5065149 98.8119293 82.0630348 98.9962919 92.3488656 99.1806545 96.1137929 99.3650171 84.8841906 99.5493797 94.5063701 99.7337423 87.4857488 99.9181049 92.1415787 100.28683 76.9786904 100.471193 103.859347 100.655555 84.7047268 100.839918 91.1827726 101.024281 89.0565251 101.208643 91.7693847 101.393006 87.986056 101.577368 86.4869517 101.761731 77.3558899 101.946094 102.804676 102.130456 87.7871012 102.314819 87.7768311 102.499181 92.0541173 102.683544 85.7125526 102.867907 91.8233743 103.052269 85.1210958 103.236632 87.6046412 103.420995 85.5809297 103.605357 97.9101326 103.974082 85.0338488 104.158445 92.2801763 104.342808 87.037395 104.52717 87.9541605 104.895895 85.8203979 105.080258 93.2031217 105.264621 94.5737645 105.448983 86.0980799 105.633346 89.1654376 106.186434 87.634688 106.370796 88.6054208 106.555159 84.9155994 106.739522 94.8781131 106.923884 91.9393687 107.108247 86.6909924 107.292609 88.7748556 107.476972 89.7709467 107.661335 88.2605408 107.845697 88.7213527 108.03006 91.2881442 108.214422 81.3919308 108.398785 99.8880527 108.583148 85.1449716 108.76751 88.7346011 108.951873 88.91586 109.136235 89.2329258 109.320598 90.0740093 109.504961 87.1589577 109.689323 87.9967414 109.873686 89.702436 110.058048 95.3090031 110.242411 84.9155994 110.426774 90.8674171 110.611136 90.8471894 110.795499 88.3406479 110.979862 88.0288913 111.164224 91.0071132 111.348587 79.3477952 111.532949 102.299488 111.717312 82.2645883 111.901675 92.4256817 112.086037 87.9435465 112.2704 91.2116317 112.454762 87.7973847 112.639125 89.7024136 112.823488 74.003295 113.00785 107.776348 113.192213 78.4748564 113.376575 98.042211 113.560938 82.028411 113.745301 95.803376 113.929663 85.6877614 114.114026 86.7538635 114.298389 73.1084853 114.482751 109.056466 114.667114 78.3373483 114.851476 99.4647938 115.035839 80.2076954 115.220202 96.9228337 115.404564 84.8059278 115.588927 86.8262277 115.773289 84.9470304 115.957652 96.0646347 116.142015 89.9643422 116.326377 91.354458 116.51074 85.5809074 116.695102 92.054095 116.879465 86.2693321 117.24819 90.7142135 117.432553 79.7656154 117.616916 103.696552 117.801278 80.4768577 117.985641 95.2365005 118.170003 84.9785419 118.354366 91.6787485 118.538729 90.0257442 118.723091 89.1654153 118.907454 74.597498 119.091816 104.298895 119.276179 84.9391626 119.460542 91.1343869 119.644904 88.3175847 119.829267 90.5992729 120.013629 87.8909054 120.197992 87.5350186 120.382355 77.6253871 120.566717 100.54919 120.75108 86.4693764 120.935443 91.8053882 121.119805 91.0954631 121.304168 88.0074223 121.48853 87.7460743 121.672893 87.705351 121.857256 79.3478131 122.041618 99.5726123 122.225981 86.5221649 122.410343 87.5350365 122.594706 94.6856017 122.779069 86.0386828 123.147794 88.7213482 123.332156 77.5272225 123.516519 100.753052 123.700882 84.4962744 124.069607 94.1355648 124.25397 86.2005535 124.622695 89.6164303 124.807057 71.5977178 124.99142 106.540521 125.175783 81.4665232 125.360145 95.7962941 125.544508 88.8580079 125.72887 87.7768266 125.913233 87.1967071 126.097596 89.3668527 126.281958 74.2794901 126.466321 104.712398 126.650683 83.0717804 126.835046 94.5063746 127.019409 88.1931063 127.203771 89.4757563 127.388134 86.9449996 127.572496 91.9659505 127.756859 75.4267575 127.941222 109.549884 128.125584 78.0388313 128.309947 97.4235874 128.49431 82.2436864 128.678672 93.7886933 128.863035 85.4099276 129.047397 91.2404193 129.23176 72.6011319 129.416123 110.670386 129.600485 78.0884495 129.784848 98.4486268 129.96921 83.0502176 130.153573 92.0979306 130.337936 86.2005535 130.522298 92.6618322 130.706661 79.8497457 130.891023 105.134504 131.075386 75.7157768 131.259749 103.246537 131.444111 81.7324616 131.628474 92.1415831 131.812837 88.1487438 131.997199 76.1075243 132.181562 108.462478 132.365924 75.9825636 132.550287 101.722995 132.73465 77.7299549 132.919012 99.7810647 133.103375 81.5685324 133.287737 94.7227528 133.4721 57.1427813 133.656463 122.429101 133.840825 69.2448129 134.025188 104.160454 134.20955 86.93581 134.393913 82.6721875 134.578276 96.5315149 134.762638 88.0938923 134.947001 85.3856588 135.315726 99.3694602 135.500089 79.4630708 135.684451 98.3899174 135.868814 81.3648445 136.053177 96.4345961 136.237539 66.8966377 136.421902 117.718018 136.606264 67.6406247 136.790627 109.244548 136.97499 73.8427862 137.159352 100.931444 137.343715 81.7050805 137.528077 93.9282108 137.71244 60.3387036 137.896803 121.127103 138.081165 66.3089915 138.265528 109.045723 138.449891 75.7808671 138.634253 100.032361 138.818616 81.0952759 139.002978 97.7176882 139.187341 57.0856012 139.371704 122.230365 139.556066 67.5564784 139.740429 106.27285 139.924791 77.7730716 140.109154 98.7795751 140.293517 80.4176169 140.477879 98.6177134 140.662242 72.0697285 140.846604 112.487284 141.030967 72.1310457 141.21533 105.570762 141.399692 77.0454016 141.584055 99.4139879 141.768418 82.5732415 141.95278 84.9234538 142.321505 98.015848 142.505868 77.0514699 142.690231 105.077626 142.874593 77.7422701 143.058956 96.4969403 143.243318 86.3732882 143.427681 70.6575181 143.612044 112.020909 143.796406 84.3128811 143.980769 83.0502176 144.165131 101.243527 144.349494 79.4374267 144.533857 94.0513586 144.718219 87.1307461 144.902582 68.8435093 145.086944 109.501748 145.271307 81.1759098 145.45567 87.3978811 145.640032 96.1137974 145.824395 83.5072161 146.008758 92.1502904 146.19312 78.9090463 146.561845 104.027465 146.746208 80.4110396 146.930571 97.6710708 147.114933 84.8606854 147.299296 90.2830645 147.483658 87.8804522 147.668021 82.7147058 148.036746 99.0178823 148.221109 80.5890834 148.405471 97.7974514 148.589834 84.1160965 148.774197 91.2976463 149.142922 85.1051949 149.327285 87.7871057 149.511647 101.638364 149.69601 80.8878817 149.880372 94.4763545 150.064735 86.4957483 150.249098 87.2536661 150.43346 87.3014446 150.617823 90.7245685 150.802185 83.1293869 150.986548 100.716057 151.170911 83.5512035 151.355273 91.095481 151.539636 87.6648732 151.723998 90.2146833 151.908361 85.5318697 152.092724 90.83708 152.277086 84.2521266 152.461449 98.8312294 152.645812 85.434241 152.830174 91.6787664 153.014537 85.0022302 153.198899 84.465589 153.383262 90.0978539 153.567625 89.1457502 153.751987 82.9999654 153.93635 97.770883 154.120712 89.7709422 154.305075 92.5611492 154.489438 86.0386828 154.6738 85.5645556 154.858163 89.8371935 155.042525 91.2020358 155.226888 88.6691313 155.411251 93.0818181 155.595613 91.4669918 155.964339 86.7899965 156.148701 89.6456287 156.333064 89.7438335 156.701789 85.6137182 156.886152 95.4605054 157.070514 89.0399187 157.254877 92.0891831 157.439239 88.6180352 157.623602 86.7628968 157.807965 88.8580079 158.17669 86.381991 158.361052 96.8340461 158.545415 88.458281 158.729778 92.9185677 158.91414 93.4588391 159.098503 88.7748511 159.282865 87.6146344 159.467228 84.3509476 159.651591 93.8895639 159.835953 93.7809104 160.020316 86.1236168 160.204679 92.4427078 160.389041 85.2648597 160.573404 90.8674126 160.757766 86.8808693 160.942129 84.8215696 161.126492 98.7731139 161.310854 87.0652941 161.495217 86.8444193 161.679579 93.0167322 161.863942 85.2648597 162.048305 90.2261635 162.232667 82.5661864 162.41703 93.6794325 162.601392 96.7312555 162.785755 82.5379926 162.970118 93.9282108 163.15448 88.2718826 163.338843 87.8491685 163.707568 85.0417568 163.891931 99.3248878 164.076293 87.5946479 164.260656 83.6910693 164.445019 95.9590444 164.629381 86.1406742 164.813744 88.9608477 164.998106 81.4597316 165.366832 98.7084433 165.551194 83.49257 165.919919 95.0616627 166.104282 83.6026346 166.288645 92.5695707 166.473007 76.8818207 166.65737 100.356875 167.026095 82.3274549 167.210458 95.6325257 167.39482 87.7256858 167.579183 85.5482037 167.763546 85.8955529 167.947908 86.6017986 168.132271 95.4820683 168.316633 90.5141201 168.500996 88.1048099 168.685359 90.9276492 168.869721 87.544936 169.054084 88.5309266 169.238446 83.3539054 169.422809 92.2110807 169.607172 94.2041871 169.791534 89.6016011 169.975897 87.4270527 170.344622 90.8269349 170.713347 84.8293839 170.89771 92.0628916 171.082073 93.1547092 171.450798 86.93581 171.63516 90.0859494 171.819523 90.328012 172.003886 86.6462995 172.188248 88.1487438 172.372611 88.5679259 172.556973 91.8502508 172.741336 91.3450318 172.925699 87.7256858 173.110061 89.3461473 173.294424 88.8866571 173.478787 87.4075931 173.663149 88.3176026 174.031874 91.522714 174.4006 88.1267255 174.584962 89.3668527 174.953687 87.9329951 175.13805 93.8895639 175.322413 86.8991457 175.691138 94.1049866 175.8755 91.4483404 176.059863 90.8269349 176.244226 88.1267255 176.428588 90.9276492 176.612951 87.4563449 176.797313 92.2456776 176.981676 91.8681342 177.350401 85.0101292 177.903489 95.1638192 178.087852 85.6137182 178.272214 90.372495 178.456577 77.1365155 178.64094 101.535408 178.825302 83.9734801 179.009665 92.910356 179.194027 94.7227528 179.562753 73.4319006 179.747115 100.74689 179.931478 97.3899996 180.11584 74.0262778 180.300203 103.293458 180.484566 84.9155949 180.668928 87.0746131 180.853291 66.1484376 181.037654 109.405396 181.222016 94.2194048 181.406379 71.9973286 181.590741 108.250775 181.775104 84.565504 181.959467 86.478173 182.143829 81.3107477 182.328192 111.661731 182.512554 66.740253 182.696917 97.36983 182.88128 104.752451 183.065642 75.65667 183.250005 90.0013593 183.434367 94.3860354 183.61873 73.500197 183.803093 84.8372026 183.987455 113.60742 184.171818 74.2910239 184.356181 82.0907552 184.540543 100.257282 184.909268 76.0896542 185.093631 123 185.277994 69.9289956 185.462356 69.9993692 185.646719 113.903258 185.831081 91.0367046 186.015444 78.512454 186.199807 88.7748511 186.384169 77.0090051 186.568532 109.27138 186.752894 85.6137182 186.937257 75.2271017 187.12162 100.648154 187.305982 97.7775274 187.490345 84.4579266 187.674708 50.404894 187.85907 119.574929 188.043433 111.327291 188.227795 60.2848975 188.412158 79.2647813 188.596521 115.027552 188.965246 73.8599642 189.149608 89.6164303 189.333971 79.785026 189.518334 94.0283312 189.702696 99.3439947 189.887059 84.7669504 190.071421 83.8095331 190.255784 96.503857 190.440147 68.3114799 190.624509 104.1951 190.808872 104.148902 190.993235 71.520281 191.177597 82.9641316 191.36196 99.5409356 191.546322 95.7962941 191.730685 74.2852547 191.915048 112.109183 192.09941 98.6825402 192.283773 62.6570356 192.468135 90.7038809 192.652498 103.27587 192.836861 95.4892573 193.205586 68.7101802 193.389948 105.355835 193.574311 103.381335 193.758674 82.3204623 193.943036 75.8638275 194.127399 91.9659505 194.311761 94.1889561 194.496124 92.202418 194.680487 93.7653355 194.864849 66.6725706 195.049212 94.9957552 195.233575 105.615919 195.6023 83.4779373 195.786662 81.9455356 196.155388 92.770066 196.33975 78.3560891 196.708475 99.1268841 197.077201 86.2952486 197.261563 93.5537261 197.445926 81.5549134 197.630288 102.668458 197.814651 93.0004161 197.999014 77.5762914 198.367739 96.5729526 198.552102 95.9590444 198.736464 85.9374908 198.920827 85.9879886 199.105189 89.9767467 199.289552 99.0371411 199.473915 83.7354184 199.658277 83.9435761 199.84264 93.1627869 200.027002 90.1684097 200.211365 88.3989777 200.395728 83.5952803 200.58009 87.140141 200.764453 94.9517053 200.948815 93.3234877 201.133178 84.9391805 201.317541 90.328012 201.501903 92.0804223 201.686266 86.5840536 201.870629 86.1406742 202.054991 90.5248457 202.239354 90.5781298 202.423716 93.6245454 202.608079 92.6451009 202.792442 79.4438388 202.976804 100.931444 203.161167 97.2350501 203.345529 80.0380597 203.529892 82.5379926 203.714255 93.4191428 203.898617 96.372118 204.08298 85.0893119 204.267342 86.8081032 204.451705 91.8143902 204.636068 90.6203669 204.82043 87.6952058 205.004793 87.3495088 205.189156 91.3261124 205.373518 87.7871057 205.557881 91.1149674 205.742243 85.0972512 205.926606 89.2993646 206.110969 91.4202895 206.479694 87.96477 206.664056 91.2212544 206.848419 87.9754018 207.032782 88.8298544 207.217144 90.6727088 207.401507 87.911919 207.585869 90.535549 207.770232 91.522714 207.954595 89.1861386 208.138957 87.954156 208.32332 90.7142314 208.507683 91.6696572 208.692045 87.4563449 208.876408 90.5568796 209.06077 82.4746572 209.245133 95.2437789 209.613858 87.4563449 209.798221 88.0074402 209.982583 91.6878666 210.166946 89.5560732 210.351309 85.2488205 210.535671 87.17781 210.720034 94.1660939 210.904396 89.6016011 211.088759 87.7155095 211.273122 89.9015738 211.641847 85.6630506 211.826209 92.0891831 212.010572 91.8770647 212.194935 88.458281 212.379297 87.7871057 212.56366 90.1450473 212.932385 86.7809543 213.116748 91.8859864 213.30111 91.0563518 213.669836 88.3989777 213.854198 90.0859494 214.222923 86.6730912 214.407286 91.0759409 214.591649 92.2629359 214.776011 89.0734708 214.960374 87.828405 215.144736 88.6562579 215.329099 88.0938923 215.513462 88.6562579 215.697824 89.7438335 215.882187 90.316822 216.06655 90.339193 216.435275 88.1267434 216.619637 88.543224 216.804 89.8631724 216.988363 89.1861565 217.172725 89.3668706 217.357088 90.1800506 217.54145 92.2973989 217.725813 89.601619 217.910176 89.601619 218.094538 89.0908139 218.278901 87.7768445 218.463263 89.8372113 218.647626 89.7301564 218.831989 88.8438887 219.200714 89.4054595 219.385077 89.3865714 219.569439 89.007608 219.753802 89.1457859 219.938164 89.1654778 220.122527 89.5714784 220.30689 89.0565742 220.491252 89.9142954 220.675615 89.4415344 220.859977 89.6456734 221.413065 88.5309712 221.78179 89.8109823 221.966153 89.8109823 221.966153 89.8109823"></polyline>
            <path d="M110.666667,58.5 L110.666667,29" id="Line" stroke="#888888" stroke-width="2" fill="#888888" stroke-linecap="square"></path>
            <path id="Line-decoration-1" d="M110.666667,27 L107.666667,37.8 L113.666667,37.8 L110.666667,27 Z" stroke="#888888" stroke-width="2" fill="#888888" stroke-linecap="square"></path>
            <text id="jumped-over-the-lazy" fill="#000000" opacity="0.6" letter-spacing="2">
                <tspan x="14" y="15">jumps over the lazy dog</tspan>
            </text>
        </g>
    </g>
</svg>
