<?xml version="1.0" encoding="UTF-8"?>
<svg width="260px" height="121px" viewBox="0 0 260 120" version="1.1" xmlns="http://www.w3.org/2000/svg" xmlns:xlink="http://www.w3.org/1999/xlink">
    <defs>
    <style>
      svg {
        font: 300 14px -apple-system, BlinkMacSystemFont, &quot;Roboto&quot;, Helvetica, sans-serif;
      }
    </style>
    </defs>
    <g id="Page-1" stroke="none" stroke-width="1" fill="none" fill-rule="evenodd">
        <g id="speech_recognition" transform="translate(0.000000, -3.000000)">
            <polyline id="path9" stroke="#000000" stroke-width="0.2" fill="#D8D8D8" fill-rule="nonzero" stroke-linecap="square" stroke-linejoin="round" points="0.915383066 87.1456743 1.13223044 87.3667768 1.56592519 87.4236466 1.78277256 87.1456743 1.99961993 87.1267862 2.43331468 87.2328632 2.65016205 87.3239281 2.86700942 87.2993244 3.08385679 87.165393 3.30070417 87.2082596 3.51755154 87.165393 3.95124628 87.2661028 4.38494103 87.3461071 4.6017884 87.2082596 4.81863578 87.1861118 5.03548316 87.1085366 5.25233053 87.2993378 5.4691779 87.1457234 5.68602527 87.3239593 6.11972002 87.2993556 6.55341476 87.1457413 6.77026213 87.186152 6.98710951 87.3461607 7.42080425 87.299378 8.07134637 87.2329347 8.28819374 87.2661563 8.50504111 87.4237359 8.72188848 87.3461607 8.93873587 86.6307255 9.15558324 88.4492977 9.37243061 87.5560866 9.58927799 87.6311166 9.80612536 86.9917965 10.0229727 87.6456421 10.2398201 86.9608611 10.4566675 87.5714471 10.6735148 87.299378 10.8903622 83.8037603 11.1072096 86.1708826 11.5409043 84.9910901 11.7577517 86.1157677 11.9745991 87.863168 12.1914464 87.1085768 12.4082938 85.0466917 12.6251412 84.6552345 12.8419885 85.564793 13.058836 84.0556375 13.2756834 92.0973465 13.4925307 85.564793 13.7093781 86.7346101 13.9262254 90.7866545 14.1430728 85.4270661 14.3599202 88.85733 14.5767675 90.0453431 14.7936149 88.5033901 15.0104622 88.6518471 15.2273097 85.1967205 15.4441571 85.5054362 15.6610044 86.6307255 15.8778518 90.1503038 16.0946992 86.8298678 16.3115465 87.3239995 16.5283939 86.3989911 16.7452412 83.663064 16.9620886 84.5486574 17.1789361 86.8159629 17.3957834 90.3916251 17.8294782 88.2376214 18.0463255 85.7461055 18.2631729 87.1654465 18.4800202 85.4563583 18.913715 88.3168354 19.1305623 88.9476224 19.3474098 88.1215466 19.5642572 85.4173318 19.9979519 90.9759196 20.2147993 89.4390124 20.4316466 73.7217022 20.648494 102.125803 20.8653413 76.225194 21.0821887 98.857723 21.2990362 80.58031 21.5158835 90.1241552 21.7327309 75.9954735 21.9495783 95.6577553 22.1664256 82.0334264 22.383273 86.7081935 22.6001203 95.1471467 22.8169677 53.7207548 23.0338151 112.760283 23.2506624 81.412204 23.4675099 74.9484113 23.6843573 100.239765 23.9012046 85.9860738 24.118052 94.0154363 24.3348993 72.9697813 24.7685941 94.5798649 24.9854414 89.7060537 25.2022888 94.9365063 25.4191363 70.691058 25.6359836 110.863863 25.852831 80.7076284 26.0696783 73.8875693 26.2865257 94.9228649 26.5033731 90.3916251 26.7202204 97.6106028 26.9370678 58.4757906 27.3707625 109.520807 27.58761 88.9176604 27.8044573 91.1789467 28.0213047 85.9541694 28.2381521 51.7501114 28.4549994 103.179979 28.6718468 100.269651 28.8886941 80.1532333 29.1055415 90.5020781 29.3223889 88.6098512 29.7560837 96.5917612 29.9729311 92.7672671 30.1897784 74.966585 30.4066258 89.2020492 30.6234731 90.4427212 30.8403205 95.9366028 31.0571679 72.2391463 31.4908626 94.4900325 31.7077101 86.5432195 31.9245574 95.7708964 32.1414048 90.7866545 32.3582521 76.2999516 32.5750995 81.7724579 33.0087942 95.956433 33.2256416 81.4925834 33.4424889 92.4613423 33.6593364 89.8144036 33.8761838 67.7776523 34.0930311 100.674402 34.3098785 94.875082 34.5267259 81.0143258 34.9604206 92.9737548 35.1772679 79.3851659 35.3941153 77.2010395 35.6109627 95.1742241 35.8278101 92.4913846 36.0446575 83.9039432 36.2615049 92.8116743 36.4783522 92.2725862 36.6951996 69.2334005 36.912047 95.7642521 37.1288943 95.3496648 37.3457417 83.6219433 37.562589 85.9119324 37.7794365 92.1889695 37.9962839 78.0510938 38.2131312 83.3533659 38.4299786 94.9365063 38.8636733 84.4781864 39.0805207 92.0743727 39.297368 90.1415965 39.5142154 72.0607586 39.7310628 93.6967452 39.9479102 94.2746678 40.1647576 85.8180679 40.381605 89.68788 40.5984523 91.0411841 40.8152997 79.1087119 41.032147 80.9999788 41.2489944 96.23946 41.6826891 84.1236302 41.8995366 89.6056698 42.116384 88.4492977 42.3332313 77.9535365 42.5500787 90.4597116 42.766926 93.9872605 42.9837734 87.5405162 43.2006208 85.2823109 43.4174681 91.3952937 43.8511628 79.6845715 44.0680103 89.4390124 44.2848577 93.1201086 44.7185524 85.234653 44.9353998 88.9376514 45.1522471 82.0034376 45.3690945 84.2866217 45.5859418 90.951374 45.8027892 89.4949087 46.0196367 86.1377324 46.236484 88.5887349 46.4533314 88.1684231 46.6701788 83.3372418 46.8870261 87.8241192 47.1038735 89.2976597 47.3207208 86.7479389 47.7544156 89.5227274 47.9712629 85.4465794 48.1881104 85.1120098 48.4049578 88.3835555 48.6218051 87.5560866 48.8386525 87.7574481 49.0554998 87.0908095 49.2723472 88.0257754 49.4891946 84.8353414 49.9228893 89.5227274 50.3565841 86.6434649 50.5734315 87.8372069 50.7902788 85.4955947 51.0071262 86.3522665 51.2239736 88.1450607 51.4408209 88.5462389 51.6576683 86.7081935 51.8745156 87.7438469 52.091363 87.4588285 52.3082105 86.53094 52.5250578 86.4463498 52.7419052 87.1654465 52.9587526 88.8370934 53.1755999 86.9762261 53.3924473 87.5405162 53.826142 85.8804656 54.0429894 86.7346101 54.2598369 88.5462389 54.4766842 88.2261769 54.6935316 86.7884658 54.9103789 87.7163498 55.1272263 86.7613571 55.3440737 86.5928778 55.7777684 87.9519332 55.9946157 87.9142463 56.2114631 86.8021429 56.4283106 87.6164258 56.6451579 86.6820717 56.8620053 86.5432016 57.0788527 87.4588106 57.2957 87.9015693 57.7293947 87.1861342 57.9462421 87.2661385 58.1630895 86.9306803 58.3799369 86.8021429 58.5967843 87.1457457 58.8136317 87.6600159 59.2473264 87.1268398 59.4641737 85.1872496 59.6810211 89.3071439 59.8978685 83.7871182 60.1147158 85.9119145 60.3315632 89.2404149 60.5484107 87.9890753 60.765258 88.3280075 60.9821054 86.375535 61.1989527 88.4601484 61.4158001 84.4430983 61.6326475 89.0857154 61.8494948 88.4165271 62.0663422 90.9349686 62.2831895 80.8783358 62.500037 93.5967811 62.7168844 82.5423962 62.9337317 91.671596 63.1505791 84.4518547 63.3674265 88.0378897 63.5842738 85.2346351 63.8011212 88.9476045 64.0179685 88.3168175 64.2348159 88.6203624 64.4516633 83.9374863 64.6685107 85.2536617 64.8853581 91.4905202 65.1022055 90.3059767 65.5359002 78.9078906 65.7527475 98.132464 65.9695949 79.5480993 66.1864423 94.6349932 66.4032896 85.417314 66.6201371 84.6730867 66.8369845 83.0972467 67.0538318 91.0004117 67.2706792 85.7973981 67.4875265 88.0740004 67.7043739 92.6781581 68.1380686 78.1097362 68.354916 96.1080827 68.5717634 81.0789695 68.7886108 93.6896008 69.4391529 82.7903306 69.6560003 90.193742 69.8728476 87.6310987 70.089695 89.1634603 70.3065424 93.7465554 70.7402372 71.7855504 70.9570846 102.900979 71.1739319 76.7134271 71.3907793 98.64815 71.6076266 84.4869517 71.824474 89.5504389 72.0413214 71.15379 72.2581687 105.606587 72.4750161 73.3033507 72.6918634 97.5536036 72.9087109 88.1567419 73.1255583 86.0612869 73.3424056 72.5337696 73.559253 103.908685 73.7761004 72.1009773 73.9929477 100.299502 74.2097951 79.6777173 74.4266424 93.5179691 74.6434898 69.4594907 74.8603373 108.0084 75.0771846 68.4883498 75.294032 102.775318 75.5108794 77.9730095 75.7277267 93.0543441 75.9445741 77.6881518 76.1614214 101.005426 76.3782688 72.342955 76.5951162 103.587694 76.8119635 76.4060599 77.028811 94.8477233 77.2456584 64.693386 77.4625057 112.649115 77.6793531 65.2992813 77.8962004 106.52208 78.1130478 75.7484233 78.3298952 95.5308299 78.5467425 61.2080072 78.7635899 115.255255 78.9804374 64.4646291 79.1972847 104.490407 79.4141321 75.9397558 79.6309794 95.9365849 79.8478268 80.6368002 80.0646742 90.7451587 80.2815215 83.288941 80.4983689 88.7554548 80.7152162 88.8674082 80.9320636 90.711888 81.1489111 80.8640648 81.3657584 91.6872512 81.5826058 85.263195 81.7994532 82.9864409 82.0163005 92.8412121 82.2331479 85.1683705 82.4499952 83.1608948 82.88369 90.2197344 83.1005374 81.3393531 83.3173848 97.5345949 83.5342322 80.9784517 83.7510795 93.9166823 83.9679269 72.6613201 84.1847742 102.379529 84.4016216 76.9596691 84.618469 100.715875 84.8353163 79.0952714 85.0521637 92.0360026 85.2690112 74.2447198 85.4858585 92.9222925 85.7027059 90.3574256 85.9195533 90.8856943 86.1364006 85.7358756 86.353248 86.375535 86.5700953 92.7301696 86.7869427 77.1055809 87.0037901 96.7795706 87.2206375 84.6999453 87.4374849 87.7438291 87.6543323 88.9873454 87.8711796 86.039675 88.088027 90.9840777 88.3048743 78.3059493 88.5217217 96.0685829 88.7385691 85.61463 88.9554164 89.8502463 89.1722638 85.0281028 89.3891113 88.4274715 89.6059586 82.8059412 89.822806 86.0829971 90.0396533 91.1223538 90.2565007 91.3234832 90.4733481 83.7871182 90.6901954 89.2976418 90.9070428 84.098071 91.1238901 88.28306 91.3407376 85.0466739 91.557585 89.2786108 91.7744323 88.9376335 91.9912797 89.0563473 92.2081271 85.1778056 92.4249744 87.4054372 92.6418218 85.7053465 92.8586691 87.0075678 93.0755165 87.7301341 93.2923639 88.9675018 93.5092113 88.6727044 93.7260587 86.039675 93.9429061 87.2661385 94.1597534 86.1048055 94.3766008 88.2943438 94.5934481 85.7768221 94.8102955 88.9575621 95.0271429 88.7861893 95.2439902 86.3061179 95.4608377 85.7563131 95.6776851 87.3239816 95.8945324 87.1654287 96.1113798 87.8502053 96.5450745 89.6331313 96.7619219 84.4693898 96.9787692 88.1800283 97.1956166 85.5747149 97.4124639 86.5309221 97.6293114 85.8387733 97.8461588 91.9898807 98.0630061 86.7884479 98.2798535 85.9224437 98.4967009 85.6648688 98.7135482 80.828423 98.9303956 95.0793371 99.1472429 85.81805 99.3640903 91.4667605 99.5809378 83.6301415 99.7977851 84.5840491 100.014633 81.0645869 100.23148 97.8440251 100.448327 78.1358358 100.665175 98.057407 100.882022 81.3539009 101.098869 90.7949197 101.315717 74.0003934 101.532564 103.796236 101.749412 73.1743623 101.966259 99.377521 102.183106 81.4925656 102.399954 91.3394644 102.616801 83.2087938 102.833648 84.4693898 103.050496 93.6253768 103.267343 83.2408053 103.701038 92.4913668 103.917885 86.0721286 104.134733 87.6164258 104.35158 91.2754413 104.568427 92.2041826 104.785275 82.4732514 105.002122 93.0616582 105.218969 78.9680022 105.435817 97.210032 105.652664 80.2018914 105.869512 78.6751293 106.086359 97.4139834 106.303206 85.0652896 106.520054 86.9917786 106.736901 90.2456731 106.953748 89.9836374 107.170596 85.7768221 107.387443 94.6143279 107.60429 67.1965464 107.821138 106.754641 108.037985 74.5622723 108.254833 100.08407 108.47168 73.2974833 108.688527 99.571765 108.905375 83.2728794 109.122222 89.787411 109.339069 73.90535 109.555917 103.174281 109.772764 76.0574247 109.989612 97.6169123 110.206459 80.4395333 110.423306 95.1539027 110.857001 71.7112348 111.073848 101.01721 111.290696 80.2367116 111.507543 93.2365139 111.724391 86.0181568 111.941238 82.4502597 112.158085 93.1929239 112.374933 83.0655165 112.59178 88.724564 112.808627 77.450242 113.025475 101.847733 113.242322 75.7484233 113.45917 97.0820349 113.676017 80.6863469 113.892864 92.973737 114.326559 72.7310142 114.543406 106.408247 114.760254 77.9730095 114.977101 96.5462645 115.193949 80.5873473 115.410796 95.160672 115.627643 82.4962699 115.844491 86.5065149 116.061338 80.0630348 116.278185 90.3488656 116.495033 94.1137929 116.71188 82.8841906 116.928728 92.5063701 117.145575 85.4857488 117.362422 90.1415787 117.796117 74.9786904 118.012965 101.859347 118.229811 82.7047268 118.446659 89.1827726 118.663507 87.0565251 118.880354 89.7693847 119.097202 85.986056 119.314048 84.4869517 119.530896 75.3558899 119.747744 100.804676 119.96459 85.7871012 120.181438 85.7768311 120.398285 90.0541173 120.615133 83.7125526 120.831981 89.8233743 121.048827 83.1210958 121.265675 85.6046412 121.482523 83.5809297 121.69937 95.9101326 122.133064 83.0338488 122.349912 90.2801763 122.56676 85.037395 122.783606 85.9541605 123.217301 83.8203979 123.434149 91.2031217 123.650997 92.5737645 123.867843 84.0980799 124.084691 87.1654376 124.735233 85.634688 124.95208 86.6054208 125.168928 82.9155994 125.385776 92.8781131 125.602622 89.9393687 125.81947 84.6909924 126.036317 86.7748556 126.253165 87.7709467 126.470012 86.2605408 126.686859 86.7213527 126.903707 89.2881442 127.120554 79.3919308 127.337401 97.8880527 127.554249 83.1449716 127.771096 86.7346011 127.987944 86.91586 128.20479 87.2329258 128.421638 88.0740093 128.638486 85.1589577 128.855333 85.9967414 129.072181 87.702436 129.289027 93.3090031 129.505875 82.9155994 129.722723 88.8674171 129.93957 88.8471894 130.156417 86.3406479 130.373265 86.0288913 130.590112 89.0071132 130.80696 77.3477952 131.023806 100.299488 131.240654 80.2645883 131.457502 90.4256817 131.674349 85.9435465 131.891197 89.2116317 132.108043 85.7973847 132.324891 87.7024136 132.541739 72.003295 132.758585 105.776348 132.975433 76.4748564 133.19228 96.042211 133.409128 80.028411 133.625976 93.803376 133.842822 83.6877614 134.05967 84.7538635 134.276518 71.1084853 134.493365 107.056466 134.710212 76.3373483 134.927059 97.4647938 135.143907 78.2076954 135.360755 94.9228337 135.577601 82.8059278 135.794449 84.8262277 136.011296 82.9470304 136.228144 94.0646347 136.444992 87.9643422 136.661838 89.354458 136.878686 83.5809074 137.095533 90.054095 137.312381 84.2693321 137.746075 88.7142135 137.962923 77.7656154 138.179771 101.696552 138.396617 78.4768577 138.613465 93.2365005 138.830312 82.9785419 139.04716 89.6787485 139.264007 88.0257442 139.480854 87.1654153 139.697702 72.597498 139.914549 102.298895 140.131396 82.9391626 140.348244 89.1343869 140.565091 86.3175847 140.781939 88.5992729 140.998785 85.8909054 141.215633 85.5350186 141.432481 75.6253871 141.649328 98.54919 141.866176 84.4693764 142.083023 89.8053882 142.29987 89.0954631 142.516718 86.0074223 142.733565 85.7460743 142.950412 85.705351 143.16726 77.3478131 143.384107 97.5726123 143.600955 84.5221649 143.817801 85.5350365 144.034649 92.6856017 144.251497 84.0386828 144.685191 86.7213482 144.902038 75.5272225 145.118886 98.753052 145.335734 82.4962744 145.769428 92.1355648 145.986276 84.2005535 146.419971 87.6164303 146.636817 69.5977178 146.853665 104.540521 147.070513 79.4665232 147.28736 93.7962941 147.504207 86.8580079 147.721054 85.7768266 147.937902 85.1967071 148.15475 87.3668527 148.371596 72.2794901 148.588444 102.712398 148.805291 81.0717804 149.022139 92.5063746 149.238987 86.1931063 149.455833 87.4757563 149.672681 84.9449996 149.889528 89.9659505 150.106375 73.4267575 150.323223 107.549884 150.54007 76.0388313 150.756918 95.4235874 150.973766 80.2436864 151.190612 91.7886933 151.40746 83.4099276 151.624307 89.2404193 151.841155 70.6011319 152.058002 108.670386 152.274849 76.0884495 152.491697 96.4486268 152.708544 81.0502176 152.925391 90.0979306 153.142239 84.2005535 153.359086 90.6618322 153.575934 77.8497457 153.79278 103.134504 154.009628 73.7157768 154.226476 101.246537 154.443323 79.7324616 154.660171 90.1415831 154.877018 86.1487438 155.093865 74.1075243 155.310713 106.462478 155.52756 73.9825636 155.744407 99.722995 155.961255 75.7299549 156.178102 97.7810647 156.39495 79.5685324 156.611796 92.7227528 156.828644 55.1427813 157.045492 120.429101 157.262339 67.2448129 157.479186 102.160454 157.696033 84.93581 157.912881 80.6721875 158.129729 94.5315149 158.346575 86.0938923 158.563423 83.3856588 158.997118 97.3694602 159.213966 77.4630708 159.430812 96.3899174 159.64766 79.3648445 159.864508 94.4345961 160.081355 64.8966377 160.298202 115.718018 160.515049 65.6406247 160.731897 107.244548 160.948745 71.8427862 161.165591 98.931444 161.382439 79.7050805 161.599286 91.9282108 161.816134 58.3387036 162.032981 119.127103 162.249828 64.3089915 162.466676 107.045723 162.683524 73.7808671 162.90037 98.032361 163.117218 79.0952759 163.334065 95.7176882 163.550913 55.0856012 163.767761 120.230365 163.984607 65.5564784 164.201455 104.27285 164.418302 75.7730716 164.63515 96.7795751 164.851997 78.4176169 165.068844 96.6177134 165.285692 70.0697285 165.502539 110.487284 165.719386 70.1310457 165.936234 103.570762 166.153081 75.0454016 166.369929 97.4139879 166.586777 80.5732415 166.803623 82.9234538 167.237318 96.015848 167.454166 75.0514699 167.671013 103.077626 167.88786 75.7422701 168.104708 94.4969403 168.321554 84.3732882 168.538402 68.6575181 168.75525 110.020909 168.972097 82.3128811 169.188945 81.0502176 169.405791 99.243527 169.622639 77.4374267 169.839487 92.0513586 170.056334 85.1307461 170.273181 66.8435093 170.490028 107.501748 170.706876 79.1759098 170.923724 85.3978811 171.14057 94.1137974 171.357418 81.5072161 171.574266 90.1502904 171.791113 76.9090463 172.224807 102.027465 172.441655 78.4110396 172.658503 95.6710708 172.87535 82.8606854 173.092197 88.2830645 173.309044 85.8804522 173.525892 80.7147058 173.959586 97.0178823 174.176434 78.5890834 174.393281 95.7974514 174.610129 82.1160965 174.826976 89.2976463 175.260671 83.1051949 175.477519 85.7871057 175.694365 99.638364 175.911213 78.8878817 176.12806 92.4763545 176.344908 84.4957483 176.561756 85.2536661 176.778602 85.3014446 176.99545 88.7245685 177.212297 81.1293869 177.429145 98.716057 177.645992 81.5512035 177.862839 89.095481 178.079687 85.6648732 178.296534 88.2146833 178.513381 83.5318697 178.730229 88.83708 178.947076 82.2521266 179.163924 96.8312294 179.380772 83.434241 179.597618 89.6787664 179.814466 83.0022302 180.031313 82.465589 180.24816 88.0978539 180.465008 87.1457502 180.681855 80.9999654 180.898703 95.770883 181.115549 87.7709422 181.332397 90.5611492 181.549245 84.0386828 181.766092 83.5645556 181.98294 87.8371935 182.199786 89.2020358 182.416634 86.6691313 182.633482 91.0818181 182.850329 89.4669918 183.284024 84.7899965 183.500871 87.6456287 183.717719 87.7438335 184.151413 83.6137182 184.368261 93.4605054 184.585108 87.0399187 184.801956 90.0891831 185.018802 86.6180352 185.23565 84.7628968 185.452498 86.8580079 185.886192 84.381991 186.103039 94.8340461 186.319887 86.458281 186.536735 90.9185677 186.753581 91.4588391 186.970429 86.7748511 187.187276 85.6146344 187.404124 82.3509476 187.620971 91.8895639 187.837818 91.7809104 188.054666 84.1236168 188.271514 90.4427078 188.48836 83.2648597 188.705208 88.8674126 188.922055 84.8808693 189.138903 82.8215696 189.355751 96.7731139 189.572597 85.0652941 189.789445 84.8444193 190.006292 91.0167322 190.22314 83.2648597 190.439987 88.2261635 190.656834 80.5661864 190.873682 91.6794325 191.090529 94.7312555 191.307376 80.5379926 191.524224 91.9282108 191.741071 86.2718826 191.957919 85.8491685 192.391613 83.0417568 192.608461 97.3248878 192.825308 85.5946479 193.042155 81.6910693 193.259003 93.9590444 193.47585 84.1406742 193.692698 86.9608477 193.909544 79.4597316 194.34324 96.7084433 194.560087 81.49257 194.993781 93.0616627 195.210629 81.6026346 195.427477 90.5695707 195.644324 74.8818207 195.861171 98.356875 196.294866 80.3274549 196.511714 93.6325257 196.72856 85.7256858 196.945408 83.5482037 197.162256 83.8955529 197.379103 84.6017986 197.595951 93.4820683 197.812797 88.5141201 198.029645 86.1048099 198.246493 88.9276492 198.463339 85.544936 198.680187 86.5309266 198.897034 81.3539054 199.113882 90.2110807 199.33073 92.2041871 199.547576 87.6016011 199.764424 85.4270527 200.198119 88.8269349 200.631813 82.8293839 200.848661 90.0628916 201.065509 91.1547092 201.499203 84.93581 201.71605 88.0859494 201.932898 88.328012 202.149746 84.6462995 202.366592 86.1487438 202.58344 86.5679259 202.800287 89.8502508 203.017135 89.3450318 203.233982 85.7256858 203.450829 87.3461473 203.667677 86.8866571 203.884525 85.4075931 204.101371 86.3176026 204.535066 89.522714 204.968761 86.1267255 205.185608 87.3668527 205.619303 85.9329951 205.83615 91.8895639 206.052998 84.8991457 206.486693 92.1049866 206.703539 89.4483404 206.920387 88.8269349 207.137235 86.1267255 207.354082 88.9276492 207.57093 85.4563449 207.787776 90.2456776 208.004624 89.8681342 208.438319 83.0101292 209.088861 93.1638192 209.305709 83.6137182 209.522555 88.372495 209.739403 75.1365155 209.956251 99.535408 210.173098 81.9734801 210.389945 90.910356 210.606792 92.7227528 211.040488 71.4319006 211.257334 98.74689 211.474182 95.3899996 211.691029 72.0262778 211.907877 101.293458 212.124725 82.9155949 212.341571 85.0746131 212.558419 64.1484376 212.775267 107.405396 212.992114 92.2194048 213.208961 69.9973286 213.425808 106.250775 213.642656 82.565504 213.859504 84.478173 214.07635 79.3107477 214.293198 109.661731 214.510045 64.740253 214.726893 95.36983 214.943741 102.752451 215.160587 73.65667 215.377435 88.0013593 215.594282 92.3860354 215.811129 71.500197 216.027977 82.8372026 216.244824 111.60742 216.461672 72.2910239 216.67852 80.0907552 216.895366 98.257282 217.329061 74.0896542 217.545909 121 217.762756 67.9289956 217.979603 67.9993692 218.196451 111.903258 218.413298 89.0367046 218.630145 76.512454 218.846993 86.7748511 219.06384 75.0090051 219.280688 107.27138 219.497534 83.6137182 219.714382 73.2271017 219.93123 98.648154 220.148077 95.7775274 220.364925 82.4579266 220.581772 48.404894 220.798619 117.574929 221.015467 109.327291 221.232314 58.2848975 221.449161 77.2647813 221.666009 113.027552 222.099704 71.8599642 222.31655 87.6164303 222.533398 77.785026 222.750246 92.0283312 222.967093 97.3439947 223.18394 82.7669504 223.400787 81.8095331 223.617635 94.503857 223.834483 66.3114799 224.051329 102.1951 224.268177 102.148902 224.485025 69.520281 224.701872 80.9641316 224.91872 97.5409356 225.135566 93.7962941 225.352414 72.2852547 225.569262 110.109183 225.786109 96.6825402 226.002956 60.6570356 226.219803 88.7038809 226.436651 101.27587 226.653499 93.4892573 227.087193 66.7101802 227.30404 103.355835 227.520888 101.381335 227.737735 80.3204623 227.954582 73.8638275 228.17143 89.9659505 228.388277 92.1889561 228.605124 90.202418 228.821972 91.7653355 229.038819 64.6725706 229.255667 92.9957552 229.472515 103.615919 229.906209 81.4779373 230.123056 79.9455356 230.556751 90.770066 230.773598 76.3560891 231.207293 97.1268841 231.640988 84.2952486 231.857835 91.5537261 232.074683 79.5549134 232.291529 100.668458 232.508377 91.0004161 232.725225 75.5762914 233.15892 94.5729526 233.375767 93.9590444 233.592614 83.9374908 233.809462 83.9879886 234.026308 87.9767467 234.243156 97.0371411 234.460004 81.7354184 234.676851 81.9435761 234.893699 91.1627869 235.110545 88.1684097 235.327393 86.3989777 235.544241 81.5952803 235.761088 85.140141 235.977935 92.9517053 236.194782 91.3234877 236.41163 82.9391805 236.628478 88.328012 236.845324 90.0804223 237.062172 84.5840536 237.27902 84.1406742 237.495867 88.5248457 237.712715 88.5781298 237.929561 91.6245454 238.146409 90.6451009 238.363257 77.4438388 238.580104 98.931444 238.796951 95.2350501 239.013798 78.0380597 239.230646 80.5379926 239.447494 91.4191428 239.66434 94.372118 239.881188 83.0893119 240.098035 84.8081032 240.314883 89.8143902 240.53173 88.6203669 240.748577 85.6952058 240.965425 85.3495088 241.182273 89.3261124 241.399119 85.7871057 241.615967 89.1149674 241.832814 83.0972512 242.049662 87.2993646 242.26651 89.4202895 242.700204 85.96477 242.917051 89.2212544 243.133899 85.9754018 243.350746 86.8298544 243.567593 88.6727088 243.784441 85.911919 244.001288 88.535549 244.218135 89.522714 244.434983 87.1861386 244.65183 85.954156 244.868678 88.7142314 245.085526 89.6696572 245.302372 85.4563449 245.51922 88.5568796 245.736067 80.4746572 245.952914 93.2437789 246.386609 85.4563449 246.603457 86.0074402 246.820303 89.6878666 247.037151 87.5560732 247.253999 83.2488205 247.470846 85.17781 247.687694 92.1660939 247.90454 87.6016011 248.121388 85.7155095 248.338236 87.9015738 248.77193 83.6630506 248.988777 90.0891831 249.205625 89.8770647 249.422473 86.458281 249.639319 85.7871057 249.856167 88.1450473 250.289862 84.7809543 250.50671 89.8859864 250.723556 89.0563518 251.157252 86.3989777 251.374098 88.0859494 251.807793 84.6730912 252.024641 89.0759409 252.241489 90.2629359 252.458335 87.0734708 252.675183 85.828405 252.89203 86.6562579 253.108878 86.0938923 253.325725 86.6562579 253.542572 87.7438335 253.75942 88.316822 253.976268 88.339193 254.409962 86.1267434 254.626809 86.543224 254.843657 87.8631724 255.060505 87.1861565 255.277351 87.3668706 255.494199 88.1800506 255.711046 90.2973989 255.927894 87.601619 256.144741 87.601619 256.361588 87.0908139 256.578436 85.7768445 256.795283 87.8372113 257.01213 87.7301564 257.228978 86.8438887 257.662673 87.4054595 257.87952 87.3865714 258.096367 87.007608 258.313215 87.1457859 258.530062 87.1654778 258.746909 87.5714784 258.963757 87.0565742 259.180604 87.9142954 259.397452 87.4415344 259.614298 87.6456734 260.264841 86.5309712 260.698535 87.8109823 260.915383 87.8109823 260.915383 87.8109823"></polyline>
            <path d="M130.666667,56.5 L130.666667,27" id="Line" stroke="#888888" stroke-width="2" fill="#888888" fill-rule="nonzero" stroke-linecap="square"></path>
            <polygon id="Line-decoration-1" stroke="#888888" stroke-width="2" fill="#888888" fill-rule="nonzero" stroke-linecap="square" points="130.666667 25 127.666667 35.8 133.666667 35.8"></polygon>
            <text id="jumped-over-the-lazy" fill="#000000" opacity="0.6" letter-spacing="2">
                <tspan x="36" y="15">jumps over the lazy dog</tspan>
            </text>

        </g>
    </g>
</svg>
